<?xml version="1.0" encoding="UTF-8" standalone="no"?>
<svg
   xmlns:dc="http://purl.org/dc/elements/1.1/"
   xmlns:cc="http://creativecommons.org/ns#"
   xmlns:rdf="http://www.w3.org/1999/02/22-rdf-syntax-ns#"
   xmlns:svg="http://www.w3.org/2000/svg"
   xmlns="http://www.w3.org/2000/svg"
   xmlns:sodipodi="http://sodipodi.sourceforge.net/DTD/sodipodi-0.dtd"
   xmlns:inkscape="http://www.inkscape.org/namespaces/inkscape"
   width="100mm"
   height="80mm"
   viewBox="0 0 100 79.999997"
   version="1.1"
   id="svg1557"
   inkscape:version="1.0.1 (3bc2e813f5, 2020-09-07)"
   sodipodi:docname="divider-houses.svg">
  <defs
     id="defs1551" />
  <sodipodi:namedview
     id="base"
     pagecolor="#ffffff"
     bordercolor="#666666"
     borderopacity="1.0"
     inkscape:pageopacity="0.0"
     inkscape:pageshadow="2"
     inkscape:zoom="1.2181193"
     inkscape:cx="194.25223"
     inkscape:cy="128.51562"
     inkscape:document-units="mm"
     inkscape:current-layer="g1400"
     inkscape:document-rotation="0"
     showgrid="false"
     inkscape:window-width="1314"
     inkscape:window-height="679"
     inkscape:window-x="26"
     inkscape:window-y="23"
     inkscape:window-maximized="0" />
  <metadata
     id="metadata1554">
    <rdf:RDF>
      <cc:Work
         rdf:about="">
        <dc:format>image/svg+xml</dc:format>
        <dc:type
           rdf:resource="http://purl.org/dc/dcmitype/StillImage" />
        <dc:title />
      </cc:Work>
    </rdf:RDF>
  </metadata>
  <g
     inkscape:label="Layer 1"
     inkscape:groupmode="layer"
     id="layer1">
    <g
       id="g1549"
       transform="matrix(0.35277777,0,0,-0.35277777,-552.2593,336.12872)">
      <g
         id="g1485"
         transform="translate(-483.60476,-98.879674)">
        <path
           id="path1445"
           style="fill:#f2f2f7;fill-opacity:1;fill-rule:nonzero;stroke:none;stroke-width:5.09852"
           d="m 2132.9294,934.61692 -11.4232,-19.79123 -7.026,-12.1656 v -9.49293 h -4.9127 v -68.13584 h 41.8027 v 7.03252 h 0.01 v 70.59625 l -7.026,12.1656 z" />
        <rect
           style="fill:#bfbfbf;fill-opacity:1;stroke-width:28.8193"
           id="rect1447"
           width="52.609299"
           height="68.242264"
           x="2058.7036"
           y="-893.18329"
           transform="scale(1,-1)" />
        <path
           d="m 2058.7039,893.18326 h 52.6093 v -8.93196 h -52.6093 z"
           style="fill:#6b6b6b;fill-opacity:1;fill-rule:nonzero;stroke:none;stroke-width:4.98003"
           id="path1449" />
        <path
           d="m 2114.4799,824.941 h -3.1667 v 68.24226 h 3.1667 z"
           style="fill:#ffffff;fill-opacity:1;fill-rule:nonzero;stroke:#ffffff;stroke-width:0.0543067;stroke-miterlimit:4;stroke-dasharray:none;stroke-opacity:1"
           id="path1452" />
        <g
           id="g1456"
           transform="matrix(3.6068327,0,0,6.8760352,2162.4498,893.18601)"
           style="fill:#f2f2f7;fill-opacity:1">
          <path
             d="M 0,0 H -1.835 L -3.783,1.688 -7.567,4.969 -8.185,4.435 -11.352,1.688 -13.3,0 h -1.835 l 7.568,6.561 3.784,-3.281 z"
             style="fill:#f2f2f7;fill-opacity:1;fill-rule:nonzero;stroke:none"
             id="path1454" />
        </g>
        <g
           id="g1460"
           transform="matrix(3.6068327,0,0,6.8760352,2155.8312,893.18601)">
          <path
             d="M 0,0 H -1.234 L -3.183,1.688 -6.35,4.435 -5.732,4.969 -1.948,1.688 Z"
             style="fill:#bfbfbf;fill-opacity:1;fill-rule:nonzero;stroke:none"
             id="path1458" />
        </g>
        <g
           id="g1464"
           transform="matrix(3.6068327,0,0,6.8760352,2135.1554,938.29693)">
          <path
             d="M 0,0 -7.567,-6.561 H -23.869 L -16.302,0 Z"
             style="fill:#f18400;fill-opacity:1;fill-rule:nonzero;stroke:none"
             id="path1462" />
        </g>
        <g
           id="g1468"
           transform="matrix(3.6068327,0,0,6.8760352,2090.1335,867.88496)">
          <path
             d="M 0,0 V -1.149 H -2.843 V 0 c 0,0.318 0.16,0.605 0.416,0.814 0.258,0.207 0.614,0.336 1.006,0.336 0.218,0 0.423,-0.04 0.608,-0.11 C -0.332,0.855 0,0.46 0,0"
             style="fill:#ffffff;fill-opacity:1;fill-rule:nonzero;stroke:none"
             id="path1466" />
        </g>
        <g
           id="g1472"
           transform="matrix(3.6068327,0,0,6.8760352,2090.1335,867.88496)">
          <path
             d="M 0,0 V -1.149 H -1.628 V 0 c 0,0.318 0.159,0.605 0.416,0.814 0.115,0.092 0.25,0.169 0.399,0.226 C -0.332,0.855 0,0.46 0,0"
             style="fill:#6b6b6b;fill-opacity:1;fill-rule:nonzero;stroke:none"
             id="path1470" />
        </g>
        <g
           id="g1476"
           transform="matrix(3.6068327,0,0,6.8760352,2127.8043,867.88496)">
          <path
             d="M 0,0 V -1.15 H 2.843 V 0 C 2.843,0.318 2.684,0.605 2.427,0.814 2.169,1.021 1.814,1.15 1.421,1.15 1.203,1.15 0.998,1.11 0.814,1.04 0.332,0.855 0,0.459 0,0"
             style="fill:#bfbfbf;fill-opacity:1;fill-rule:nonzero;stroke:none"
             id="path1474" />
        </g>
        <g
           id="g1481"
           transform="matrix(3.6068327,0,0,6.8760352,2127.8043,867.88496)">
          <path
             d="M 0,0 V -1.15 H 1.628 V 0 C 1.628,0.318 1.469,0.605 1.213,0.814 1.097,0.906 0.962,0.982 0.814,1.04 0.332,0.855 0,0.459 0,0"
             style="fill:#6b6b6b;fill-opacity:1;fill-rule:nonzero;stroke:none"
             id="path1478" />
        </g>
      </g>
      <g
         id="g1327"
         transform="translate(-657.33011,60.254266)">
        <g
           id="g1400">
          <g
             id="g1442"
             transform="translate(0,9.9291771)">
            <g
               id="g1433"
               transform="matrix(6.3119431,0,0,3.849963,2441.6484,848.29797)"
               style="fill:#f2f2f7;fill-opacity:1">
              <path
                 d="M 0,0 -3.619,3.729 -7.24,0 -9.467,-2.294 V -39.479 H 2.227 v 37.185 z"
                 style="fill:#f2f2f7;fill-opacity:1;fill-rule:nonzero;stroke:none"
                 id="path1431" />
            </g>
            <path
               d="M 2270.3429,822.19993 H 2375.563 V 655.85073 H 2270.3429 Z"
               style="fill:#bfbfbf;fill-opacity:1;fill-rule:nonzero;stroke:none;stroke-width:5.31384"
               id="path1417" />
            <path
               d="M 2270.3429,839.46693 H 2375.563 V 832.6756 H 2270.3429 Z"
               style="fill:#6b6b6b;fill-opacity:1;fill-rule:nonzero;stroke:none;stroke-width:4.92958"
               id="path1419" />
            <path
               d="m 2381.8939,655.85073 h -6.3309 v 183.6162 h 6.3309 z"
               style="fill:#ffffff;fill-opacity:1;fill-rule:nonzero;stroke:none;stroke-width:5.58282"
               id="path1425" />
            <path
               d="m 2270.3429,822.19993 h 105.2201 v -10.5 h -105.2201 z"
               style="fill:#6b6b6b;fill-opacity:1;fill-rule:nonzero;stroke:none;stroke-width:7.6361"
               id="path1304" />
            <g
               id="g1437"
               transform="matrix(6.3119431,0,0,6.9136152,2464.6037,821.01447)">
              <path
                 d="M 0,0 H -1.41 L -3.637,2.294 -7.256,6.023 -6.552,6.75 -2.227,2.294 Z"
                 style="fill:#bfbfbf;fill-opacity:1;fill-rule:nonzero;stroke:none"
                 id="path1435" />
            </g>
            <g
               id="g1441"
               transform="matrix(6.3119431,0,0,6.9136152,2423.2491,882.62239)">
              <path
                 d="M 0,0 -8.648,-8.911 H -27.279 L -18.631,0 Z"
                 style="fill:#f18400;fill-opacity:1;fill-rule:nonzero;stroke:none"
                 id="path1439" />
            </g>
            <g
               id="g1445"
               transform="matrix(6.3119431,0,0,6.9136152,2333.2118,786.46645)">
              <path
                 d="M 0,0 V -1.562 H -3.249 V 0 c 0,0.432 0.183,0.821 0.475,1.105 0.295,0.282 0.701,0.457 1.149,0.457 0.25,0 0.483,-0.054 0.694,-0.15 C -0.38,1.161 0,0.623 0,0"
                 style="fill:#ffffff;fill-opacity:1;fill-rule:nonzero;stroke:none"
                 id="path1443" />
            </g>
            <g
               id="g1449"
               transform="matrix(6.3119431,0,0,6.9136152,2333.2118,786.46645)">
              <path
                 d="M 0,0 V -1.562 H -1.861 V 0 c 0,0.432 0.182,0.821 0.475,1.105 0.132,0.125 0.286,0.23 0.455,0.307 C -0.38,1.161 0,0.623 0,0"
                 style="fill:#6b6b6b;fill-opacity:1;fill-rule:nonzero;stroke:none"
                 id="path1447" />
            </g>
            <g
               id="g1453"
               transform="matrix(6.3119431,0,0,6.9136152,2408.5479,786.45953)">
              <path
                 d="M 0,0 V -1.562 H 3.249 V 0 C 3.249,0.432 3.066,0.822 2.774,1.105 2.479,1.388 2.073,1.562 1.625,1.562 1.375,1.562 1.141,1.509 0.931,1.412 0.38,1.162 0,0.624 0,0"
                 style="fill:#bfbfbf;fill-opacity:1;fill-rule:nonzero;stroke:none"
                 id="path1451" />
            </g>
            <g
               id="g1457"
               transform="matrix(6.3119431,0,0,6.9136152,2408.5479,786.45953)">
              <path
                 d="M 0,0 V -1.562 H 1.861 V 0 C 1.861,0.432 1.679,0.822 1.386,1.105 1.254,1.23 1.1,1.335 0.931,1.412 0.38,1.162 0,0.624 0,0"
                 style="fill:#6b6b6b;fill-opacity:1;fill-rule:nonzero;stroke:none"
                 id="path1455" />
            </g>
            <path
               id="rect1301"
               style="fill:#f2f2f7;fill-opacity:1;stroke:#ffffff;stroke-width:0.109077;stroke-miterlimit:4;stroke-dasharray:none;stroke-opacity:1"
               d="m 2381.9478,727.67072 h 73.7405 v -71.76527 h -73.7405 z" />
          </g>
          <g
             id="g1429"
             transform="matrix(6.3119431,0,0,6.9136152,2477.8373,830.94369)"
             style="fill:#f2f2f7;fill-opacity:1">
            <path
               d="M 0,0 H -2.097 L -4.323,2.294 -8.648,6.75 -9.353,6.023 -12.974,2.294 -15.2,0 h -2.097 l 8.649,8.911 4.325,-4.456 z"
               style="fill:#f2f2f7;fill-opacity:1;fill-rule:nonzero;stroke:none"
               id="path1427" />
          </g>
        </g>
      </g>
      <g
         id="g1420"
         transform="translate(-313.52546,-98.879492)">
        <path
           id="path1389"
           style="fill:#f2f2f7;fill-opacity:1;fill-rule:nonzero;stroke:none;stroke-width:5.09852"
           d="m 2132.9294,934.61692 -11.4232,-19.79123 -7.026,-12.1656 v -9.49293 h -4.9127 v -68.13584 h 41.8027 v 7.03252 h 0.01 v 70.59625 l -7.026,12.1656 z" />
        <rect
           style="fill:#bfbfbf;fill-opacity:1;stroke-width:28.8193"
           id="rect1295"
           width="52.609299"
           height="68.242264"
           x="2058.7036"
           y="-893.18329"
           transform="scale(1,-1)" />
        <path
           d="m 2058.7039,893.18326 h 52.6093 v -8.93196 h -52.6093 z"
           style="fill:#6b6b6b;fill-opacity:1;fill-rule:nonzero;stroke:none;stroke-width:4.98003"
           id="path1377" />
        <path
           d="m 2114.4799,824.941 h -3.1667 v 68.24226 h 3.1667 z"
           style="fill:#ffffff;fill-opacity:1;fill-rule:nonzero;stroke:#ffffff;stroke-width:0.0543067;stroke-miterlimit:4;stroke-dasharray:none;stroke-opacity:1"
           id="path1383" />
        <g
           id="g1387"
           transform="matrix(3.6068327,0,0,6.8760352,2162.4498,893.18601)"
           style="fill:#f2f2f7;fill-opacity:1">
          <path
             d="M 0,0 H -1.835 L -3.783,1.688 -7.567,4.969 -8.185,4.435 -11.352,1.688 -13.3,0 h -1.835 l 7.568,6.561 3.784,-3.281 z"
             style="fill:#f2f2f7;fill-opacity:1;fill-rule:nonzero;stroke:none"
             id="path1385" />
        </g>
        <g
           id="g1395"
           transform="matrix(3.6068327,0,0,6.8760352,2155.8312,893.18601)">
          <path
             d="M 0,0 H -1.234 L -3.183,1.688 -6.35,4.435 -5.732,4.969 -1.948,1.688 Z"
             style="fill:#bfbfbf;fill-opacity:1;fill-rule:nonzero;stroke:none"
             id="path1393" />
        </g>
        <g
           id="g1399"
           transform="matrix(3.6068327,0,0,6.8760352,2135.1554,938.29693)">
          <path
             d="M 0,0 -7.567,-6.561 H -23.869 L -16.302,0 Z"
             style="fill:#f18400;fill-opacity:1;fill-rule:nonzero;stroke:none"
             id="path1397" />
        </g>
        <g
           id="g1403"
           transform="matrix(3.6068327,0,0,6.8760352,2090.1335,867.88496)">
          <path
             d="M 0,0 V -1.149 H -2.843 V 0 c 0,0.318 0.16,0.605 0.416,0.814 0.258,0.207 0.614,0.336 1.006,0.336 0.218,0 0.423,-0.04 0.608,-0.11 C -0.332,0.855 0,0.46 0,0"
             style="fill:#ffffff;fill-opacity:1;fill-rule:nonzero;stroke:none"
             id="path1401" />
        </g>
        <g
           id="g1407"
           transform="matrix(3.6068327,0,0,6.8760352,2090.1335,867.88496)">
          <path
             d="M 0,0 V -1.149 H -1.628 V 0 c 0,0.318 0.159,0.605 0.416,0.814 0.115,0.092 0.25,0.169 0.399,0.226 C -0.332,0.855 0,0.46 0,0"
             style="fill:#6b6b6b;fill-opacity:1;fill-rule:nonzero;stroke:none"
             id="path1405" />
        </g>
        <g
           id="g1411"
           transform="matrix(3.6068327,0,0,6.8760352,2127.8043,867.88496)">
          <path
             d="M 0,0 V -1.15 H 2.843 V 0 C 2.843,0.318 2.684,0.605 2.427,0.814 2.169,1.021 1.814,1.15 1.421,1.15 1.203,1.15 0.998,1.11 0.814,1.04 0.332,0.855 0,0.459 0,0"
             style="fill:#bfbfbf;fill-opacity:1;fill-rule:nonzero;stroke:none"
             id="path1409" />
        </g>
        <g
           id="g1415"
           transform="matrix(3.6068327,0,0,6.8760352,2127.8043,867.88496)">
          <path
             d="M 0,0 V -1.15 H 1.628 V 0 C 1.628,0.318 1.469,0.605 1.213,0.814 1.097,0.906 0.962,0.982 0.814,1.04 0.332,0.855 0,0.459 0,0"
             style="fill:#6b6b6b;fill-opacity:1;fill-rule:nonzero;stroke:none"
             id="path1413" />
        </g>
      </g>
    </g>
  </g>
</svg>
