<?xml version="1.0" encoding="UTF-8" standalone="no"?>
<svg
   xmlns:serif="http://www.serif.com/"
   xmlns:dc="http://purl.org/dc/elements/1.1/"
   xmlns:cc="http://creativecommons.org/ns#"
   xmlns:rdf="http://www.w3.org/1999/02/22-rdf-syntax-ns#"
   xmlns:svg="http://www.w3.org/2000/svg"
   xmlns="http://www.w3.org/2000/svg"
   xmlns:sodipodi="http://sodipodi.sourceforge.net/DTD/sodipodi-0.dtd"
   xmlns:inkscape="http://www.inkscape.org/namespaces/inkscape"
   width="100%"
   height="100%"
   viewBox="0 0 630 723"
   version="1.1"
   xml:space="preserve"
   style="fill-rule:evenodd;clip-rule:evenodd;stroke-linecap:round;stroke-linejoin:round;stroke-miterlimit:1.5;"
   id="svg183"
   sodipodi:docname="jester_weld.svg"
   inkscape:version="1.0.1 (3bc2e813f5, 2020-09-07)"><metadata
   id="metadata187"><rdf:RDF><cc:Work
       rdf:about=""><dc:format>image/svg+xml</dc:format><dc:type
         rdf:resource="http://purl.org/dc/dcmitype/StillImage" /></cc:Work></rdf:RDF></metadata><sodipodi:namedview
   pagecolor="#ffffff"
   bordercolor="#666666"
   borderopacity="1"
   objecttolerance="10"
   gridtolerance="10"
   guidetolerance="10"
   inkscape:pageopacity="0"
   inkscape:pageshadow="2"
   inkscape:window-width="1720"
   inkscape:window-height="953"
   id="namedview185"
   showgrid="false"
   inkscape:zoom="0.66666667"
   inkscape:cx="315"
   inkscape:cy="361.5"
   inkscape:window-x="26"
   inkscape:window-y="23"
   inkscape:window-maximized="0"
   inkscape:current-layer="svg183" />
    <g
   transform="matrix(-1,0,0,1,1348.8689,-696)"
   id="g174">
        <g
   id="colour"
   transform="matrix(-1,0,0,1,1755.61,89.1133)">
            <g
   transform="matrix(-1,0,0,1,1755.61,-89.1133)"
   id="g4">
                <path
   d="m 1159.11,1154.54 c 0,0 25.35,107.67 12.61,184.79 l -252.841,-10.85 5.37,-154.8 z"
   style="fill:#8854ef"
   id="path2" />
            </g>
            <g
   transform="matrix(-1,0,0,1,1771.78,-76.7328)"
   id="g8">
                <path
   d="m 1172.15,1190.65 c 41,7.71 79.71,53.21 84.38,80.59 4.84,28.32 -5.12,54.44 -23.41,58.47 -20.72,4.57 -43.5,-6.59 -50.2,-28.8 -3.39,-11.23 -12.91,-19.39 -24.48,-17.45 -11.56,1.94 -19.72,12.97 -17.44,24.48 11.01,55.79 59.97,73.66 101.29,65.39 35.11,-7.02 65.92,-40.19 60.53,-100.08 -3.81,-42.45 -25.72,-69.2 -53.16,-90.85 -24.21,-19.1 -47.61,-32.55 -75.01,-36.25 -30.14,-4.07 -50.74,35.44 -2.5,44.5 z"
   style="fill:#539cef"
   id="path6" />
            </g>
            <g
   transform="rotate(8.6957228,392.84562,1218.1949)"
   id="g12">
                <path
   d="m 810.218,831.016 c -0.381,-1.086 -10.172,-32.342 -10.172,-32.342 L 651.85,785.19 l -163.988,89.78 3.457,25.192 c 6.466,56.075 32.922,152.908 146.728,159.398 168.032,9.59 202.022,-143.526 172.171,-228.544 z"
   style="fill:#ffd8bb"
   id="path10" />
            </g>
            <g
   transform="matrix(-0.962387,-0.19722,0.241093,-1.17648,1247.8,2313.86)"
   id="g16">
                <path
   d="m 722.752,960.164 c 2.543,-1.5 23.043,-4.085 27.218,-0.693 4.407,3.58 -14.518,15.008 -19.873,14.936 -4.233,-0.057 -12.114,-11.43 -7.345,-14.243 z"
   style="fill:#edb68d"
   id="path14" />
            </g>
            <g
   transform="rotate(8.6957228,392.84562,1218.1949)"
   id="g20">
                <path
   d="m 704.791,903.123 c 0,0 31.796,50.065 3.29,60.109 -28.507,10.045 -97.66,-2.124 -96.263,-33.294 1.021,-22.799 23.965,-38.42 23.965,-38.42 z m 84.611,-15.395 -44.914,8.284 c -3.695,21.395 -6.263,52.979 8.838,60.223 23.34,11.196 36.798,2.293 42.906,-13.047 3.934,-9.879 2.726,-35.184 -6.83,-55.46 z"
   style="fill:#ffffff"
   id="path18" />
            </g>
            <g
   transform="matrix(1.02778,0.372388,-0.301433,0.831951,318.855,-31.0566)"
   id="g24">
                <path
   d="m 641.619,1016.26 c 0,0 -31.369,-18.382 -13.11,-36.455 11.744,-11.626 36.895,-0.675 42.078,24.035"
   style="fill:#f48c8c"
   id="path22" />
            </g>
            <g
   transform="rotate(8.6957228,392.84562,1218.1949)"
   id="g28">
                <path
   d="m 736.17,701.648 c -2.948,-8.496 -49.878,-108.732 -57.888,-109.66 -8.011,-0.927 -60.011,-10.651 -63.347,-4.251 -3.335,6.4 -57.799,165.046 -57.799,165.046 0,0 -96.841,-56.05 -113.982,-50.826 -17.141,5.223 -59.564,145.246 -59.564,145.246 l 5.58,29.827 c 11.369,-10.741 47.969,-83.331 52.678,-76.569 4.709,6.761 47.556,98.957 47.556,98.957 151.164,-96.893 259.638,-111.406 322.238,-66.613 0,0 -9.512,-127.059 -9.797,-133.536 -0.285,-6.476 55.94,-16.047 67.628,-8.342 7.818,5.154 41.498,70.209 46.585,75.562 5.087,5.352 22.588,-9.375 22.588,-9.375 0,0 -41.324,-114.898 -50.188,-115.959 -8.864,-1.061 -124.535,-26.887 -132.159,-16.056 -8.021,11.395 -20.129,76.549 -20.129,76.549 z"
   style="fill:#8854ef"
   id="path26" />
            </g>
            <g
   transform="rotate(8.6957228,392.84562,1218.1949)"
   id="g32">
                <path
   d="m 479.833,878.917 c 0,0 -7.68,12.162 9.571,20.501 0,0 200.947,-144.668 322.238,-66.613 0,0 13.969,-14.511 -1.765,-23.631 0,0 -110.83,-88.303 -330.044,69.743 z m -93.504,-40.366 c -13.459,2.927 -39.412,33.844 -4.41,47.885 35.763,14.346 35.234,-23.474 27.355,-38.292 -7.252,-13.64 -9.486,-12.519 -22.945,-9.593 z m 524.296,-83.275 c -8.307,11.572 -4.662,51.793 33.784,37.038 39.284,-15.077 9.446,-41.498 -8.279,-46.436 -16.314,-4.545 -17.198,-2.174 -25.505,9.398 z M 673.193,689.549 c -10.784,8.568 -22.582,42.681 15.128,42.329 38.532,-0.361 22.129,-37.035 11.691,-44.161 -10.729,-7.327 -16.928,-6.026 -26.819,1.832 z"
   style="fill:#ffc343"
   id="path30" />
            </g>
            <g
   transform="matrix(-1.1758,-0.179833,-0.160056,1.0465,1703.51,145.359)"
   id="g36">
                <path
   d="m 596.264,765.581 c 0,0 -30.093,139.19 -27.839,228.859 0.869,34.58 221.843,84.39 229.4,35.27 40.544,-263.53 63.058,-228.968 -201.561,-264.129 z"
   style="fill:#5b6a73"
   id="path34" />
            </g>
            <g
   transform="matrix(-0.977244,-0.166481,-0.167939,0.985797,1583.61,197.346)"
   id="g40">
                <path
   d="m 596.264,852.563 c 0,0 -11.52,48.855 -10.659,82.861 0.325,12.821 209.704,35.08 213.858,6.836 11.812,-80.312 30.596,-65.699 -203.199,-89.697 z"
   style="fill:#2c3d47"
   id="path38" />
            </g>
            <g
   transform="matrix(-1,0,0,1,1755.61,-89.1133)"
   id="g44">
                <path
   d="m 888.531,1014.92 c 0,0 -4.427,63.16 6.301,107.35 3.834,15.8 232.988,3.57 231.438,-32.49 -1.79,-41.84 0.88,-65.28 -12.71,-77.03 -19.71,-17.054 -73.64,-9.5 -225.029,2.17 z m 9.35,12.73 c 0,0 -3.053,50.08 3.499,83.46 2.471,12.58 210.82,-0.33 210.14,-28.87 -1.94,-81.14 18.87,-69.86 -213.639,-54.59 z"
   style="fill:#77818d"
   id="path42" />
            </g>
            <g
   transform="matrix(-1.77442,0,0,1.96251,1728.95,-1306.15)"
   id="g48">
                <path
   d="m 557.304,1284.18 c 0,0 92.879,13.16 91.372,15.27 -8.596,3.33 -89.768,34.65 -89.768,34.65 0,0 -97.604,-18.56 -135.355,-28.88 0,0 -14.611,-102.95 -14.869,-123.04 0,0 125.199,12.02 142.047,17.33 0,0 4.071,45.87 6.573,84.67 z"
   style="fill:#8ea7b8"
   id="path46" />
            </g>
            <g
   transform="matrix(-0.67813,-0.0513805,-0.0541007,0.714032,1540.3,318.848)"
   id="g52">
                <path
   d="m 862.482,1210.75 c -15.38,2.6 -29.096,18.5 -13.718,41.32 14.684,21.8 44.207,6.01 45.542,-11.68 1.203,-15.96 -12.619,-32.89 -31.824,-29.64 z"
   style="fill:#9eb6c7"
   id="path50" />
            </g>
            <g
   transform="matrix(-1,0,0,1,1755.61,-89.1133)"
   id="g56">
                <path
   d="m 752.009,1108.43 c -0.095,-2.05 -0.153,-3.86 -0.171,-5.42 0,0 222.155,23.59 252.052,34 0,0 7.22,90.02 11.66,166.16 0,0 164.81,25.83 162.13,29.98 -14.69,6.29 -148.8,63.51 -158.7,67.74 l -20.226,-259.88 c -79.885,-15 -160.922,-23.48 -246.745,-32.58 z"
   style="fill:#9db7c8"
   id="path54" />
            </g>
            <g
   transform="matrix(-1,0,0,1,1755.61,-89.1133)"
   id="g60">
                <path
   d="m 996.245,1140.54 c 2.795,-1.19 5.705,-4.21 7.645,-3.53 0,0 7.22,90.02 11.66,166.16 l 6.38,89.33 145.24,-62.88 v 0 l 9.73,3.87 c -18.81,8.05 -158.5,67.65 -158.5,67.65 0,0 -1.52,-0.32 -4.32,-0.92 -5.81,-73.84 -15.736,-227.38 -17.835,-259.68 z"
   style="fill:#7c98aa"
   id="path58" />
            </g>
            <g
   transform="matrix(-0.729622,-0.683851,-0.683851,0.729622,2343.03,1074.52)"
   id="g64">
                <path
   d="m 1157.28,1336.21 c -14.76,0.94 -32.37,2.58 -34.51,-20.51 -2.6,-28.03 28.11,-45.18 46.69,-40.49 23.92,6.03 20.12,58.94 -12.18,61 z"
   style="fill:#ffd8bb"
   id="path62" />
            </g>
            <g
   transform="matrix(-0.851084,-0.480363,-0.456062,0.80803,2231.93,726.256)"
   id="g68">
                <path
   d="m 1202.23,1314.57 -5.23,-30.51 c -2.39,-8.24 -19.54,-5.2 -20.82,0.97 l -1.82,34.31 c 10.11,8.74 19.95,5.49 27.87,-4.77 z"
   style="fill:#40607a"
   id="path66" />
            </g>
            <g
   transform="matrix(-0.928044,-0.37247,-0.37247,0.928044,2172.54,430.48)"
   id="g72">
                <path
   d="m 1131.52,1247.16 4.85,0.43 c 0,0 0.97,-3.19 7.49,-2.19 7.02,1.09 6.35,11.43 -6.1,8.16 -0.28,-0.07 -1.41,-1.25 -1.64,-1.33 -1.06,-0.38 -0.78,0.12 -1.99,-0.22"
   style="fill:#ec4747"
   id="path70" />
            </g>
            <g
   transform="matrix(-0.511376,-0.288627,-0.3694,0.654486,1717.61,695.864)"
   id="g76">
                <path
   d="m 1191.66,1284.11 c 0,0 -0.18,-35.26 -11.15,-45.89 -6.85,-6.65 -44.67,-11.92 -44.67,-11.92 -9.57,4.95 0.29,9.1 0.29,9.1 0,0 30.59,5.13 35.75,9.4 6.26,5.18 7.57,39.57 7.57,39.57 0,0 6.98,4.42 12.21,-0.26 z"
   style="fill:#c3cfd4"
   id="path74" />
            </g>
            <g
   id="line">
                <g
   transform="rotate(-1.6445805,677.54902,-924.39388)"
   id="g80">
                    <path
   d="m 384.892,867.402 c 0.363,0.2 0.827,0.172 1.167,-0.107 1.071,-0.854 3.478,-2.11 5.495,-3.642 1.454,-1.105 2.697,-2.365 3.292,-3.677 0.999,-2.204 0.534,-4.775 -3.914,-7.218 -1.439,-0.78 -2.668,-0.873 -3.692,-0.543 -1.038,0.335 -1.923,1.13 -2.591,2.344 -0.589,1.069 -1.031,2.49 -1.323,4.133 -0.575,3.241 -0.617,7.387 -0.436,11.231 0.277,5.887 1.062,11.047 1.062,11.047 0.048,0.385 0.399,0.66 0.784,0.613 0.386,-0.048 0.66,-0.399 0.613,-0.784 0,0 -0.474,-5.118 -0.485,-10.924 -10e-4,-0.815 0.007,-1.644 0.028,-2.473 z m 0.069,-1.902 c 0.111,-2.269 0.332,-4.473 0.725,-6.352 0.266,-1.271 0.606,-2.383 1.061,-3.239 0.344,-0.646 0.724,-1.14 1.261,-1.313 0.488,-0.158 1.056,-0.018 1.745,0.351 2.74,1.448 3.51,2.714 2.926,4.072 -0.548,1.274 -1.931,2.439 -3.358,3.484 -1.65,1.207 -3.388,2.24 -4.36,2.997 z"
   id="path78" />
                </g>
                <g
   transform="matrix(0.870247,0.492615,-0.447573,0.790677,815.653,-107.444)"
   id="g84">
                    <path
   d="m 384.881,867.487 c 0.349,0.218 0.797,0.203 1.139,-0.078 1.055,-0.838 3.404,-2.062 5.4,-3.558 1.465,-1.099 2.731,-2.361 3.359,-3.671 1.093,-2.28 0.73,-5.017 -3.889,-7.558 -1.281,-0.694 -2.389,-0.836 -3.33,-0.616 -1.073,0.251 -1.978,0.97 -2.683,2.108 -0.654,1.057 -1.15,2.505 -1.478,4.209 -0.507,2.643 -0.648,5.93 -0.584,9.182 0.137,6.825 1.138,13.483 1.138,13.483 0.052,0.423 0.407,0.721 0.792,0.664 0.385,-0.057 0.655,-0.448 0.603,-0.871 0,0 -0.486,-5.204 -0.491,-11.066 0,-0.735 0.007,-1.481 0.024,-2.228 z m 0.074,-2.068 c 0.118,-2.34 0.354,-4.607 0.779,-6.509 0.292,-1.309 0.667,-2.43 1.184,-3.239 0.319,-0.498 0.685,-0.864 1.16,-0.974 0.489,-0.113 1.051,0.029 1.717,0.386 1.177,0.623 2,1.229 2.519,1.849 0.589,0.704 0.657,1.39 0.355,2.052 -0.46,1.012 -1.455,1.946 -2.554,2.818 -1.867,1.48 -4.048,2.74 -5.16,3.617 z"
   id="path82" />
                </g>
                <g
   transform="matrix(-1.22655,0.370163,0.249723,0.827465,1257.64,6.68778)"
   id="g88">
                    <path
   d="m 384.639,866.932 c -0.174,6.846 0.552,13.807 0.552,13.807 0.054,0.442 -0.144,0.866 -0.442,0.946 -0.298,0.081 -0.584,-0.213 -0.639,-0.655 0,0 -1.021,-7.182 -1.053,-14.29 -0.016,-3.576 0.233,-7.127 0.932,-9.794 0.565,-2.157 1.443,-3.759 2.629,-4.553 1.056,-0.706 2.391,-0.79 4.058,0.099 1.676,0.918 2.757,1.856 3.392,2.754 0.712,1.007 0.963,2.031 0.94,2.998 -0.02,0.851 -0.257,1.705 -0.714,2.51 -0.7,1.233 -1.968,2.422 -3.38,3.448 -1.929,1.403 -4.118,2.545 -5.123,3.343 -0.393,0.323 -0.889,0.111 -1.107,-0.472 -0.017,-0.046 -0.032,-0.093 -0.045,-0.141 z m 0.032,-0.993 c 0.071,-0.207 0.184,-0.386 0.331,-0.507 1,-0.847 3.182,-2.106 5.106,-3.592 1.139,-0.88 2.189,-1.821 2.747,-2.845 0.149,-0.274 0.263,-0.539 0.266,-0.824 0.004,-0.396 -0.225,-0.717 -0.585,-1.125 -0.54,-0.613 -1.364,-1.216 -2.527,-1.833 -1.149,-0.626 -2.048,-0.647 -2.754,-0.103 -1.188,0.915 -1.787,3.162 -2.166,5.841 -0.22,1.556 -0.351,3.257 -0.418,4.988 z"
   id="path86" />
                </g>
                <g
   transform="rotate(8.6957228,392.84562,1218.1949)"
   id="g92">
                    <path
   d="m 698.018,685.263 c -0.394,-5.911 -1.015,-12.871 -1.687,-20.029 -0.745,-7.943 -1.6,-16.12 -2.32,-23.38 -1.314,-13.239 -2.29,-23.4 -2.29,-23.4 -0.058,-0.435 0.248,-0.834 0.682,-0.892 0.434,-0.058 0.834,0.248 0.892,0.682 0,0 1.426,8.418 3.116,19.934 0.606,4.126 1.233,8.648 1.845,13.323 1.501,11.473 2.908,23.847 3.751,33.457 0.084,1.1 -0.741,2.062 -1.842,2.147 -1.1,0.084 -2.062,-0.741 -2.147,-1.842 z"
   id="path90" />
                </g>
                <g
   transform="rotate(8.6957228,392.84562,1218.1949)"
   id="g96">
                    <path
   d="m 665.058,694.09 c -6.337,-7.408 -14.416,-18.332 -21.693,-28.94 -2.834,-4.132 -5.545,-8.214 -7.987,-12.018 -5.537,-8.629 -9.715,-15.793 -11.044,-18.702 -0.193,-0.394 -0.029,-0.869 0.364,-1.062 0.394,-0.193 0.869,-0.03 1.062,0.364 1.466,2.8 6.053,9.588 11.9,17.862 2.597,3.674 5.434,7.641 8.369,11.674 7.491,10.289 15.623,20.991 22.041,28.191 0.727,0.831 0.641,2.096 -0.19,2.822 -0.832,0.726 -2.096,0.64 -2.822,-0.191 z"
   id="path94" />
                </g>
                <g
   transform="matrix(0.988505,0.151187,-0.127931,0.836453,167.958,90.1673)"
   id="g100">
                    <path
   d="m 492.596,896.655 c 0,0 1.548,-1.623 4.599,-4.332 0.614,-0.545 1.294,-1.123 2.041,-1.73 2.73,-2.22 6.306,-4.881 10.542,-8.029 2.289,-1.702 4.791,-3.506 7.456,-5.465 3.445,-2.531 7.114,-5.413 11.194,-8.181 0.805,-0.547 1.633,-1.074 2.479,-1.592 1.904,-1.166 3.886,-2.267 5.919,-3.427 0.479,-0.32 1.088,-0.12 1.359,0.447 0.27,0.566 0.101,1.286 -0.378,1.606 -2.256,1.729 -4.385,3.488 -6.526,5.076 -1.044,0.775 -2.099,1.484 -3.128,2.195 -3.1,2.141 -6.067,4.109 -8.802,6.059 -1.286,0.917 -2.524,1.824 -3.714,2.711 -6.41,4.777 -11.457,8.99 -15.146,11.882 -0.703,0.55 -1.364,1.039 -1.97,1.485 -3.002,2.209 -4.636,3.374 -4.636,3.374 -0.486,0.42 -1.169,0.296 -1.524,-0.278 -0.356,-0.573 -0.25,-1.38 0.235,-1.801 z"
   id="path98" />
                </g>
                <g
   transform="matrix(-0.468541,-0.26445,-0.419102,0.742545,1730.41,553.641)"
   id="g104">
                    <path
   d="m 1169.85,1289.82 c 2.93,1.71 8.04,2.97 15.16,3.02 8.01,0.05 14.21,-1.84 17.42,-4.24"
   style="fill:none;stroke:#000000;stroke-width:4.21px"
   id="path102" />
                </g>
                <g
   transform="matrix(-1,0,0,1,1755.61,-89.1133)"
   id="g108">
                    <path
   d="m 1021.84,1373.54 62.25,-28.59 -65.59,-13.76"
   style="fill:none;stroke:#000000;stroke-width:3px"
   id="path106" />
                </g>
                <g
   transform="matrix(-1,0,0,1,1755.61,-89.1133)"
   id="g112">
                    <path
   d="m 1070.74,1351.08 -51.15,-11.03"
   style="fill:none;stroke:#000000;stroke-width:3px"
   id="path110" />
                </g>
                <g
   transform="matrix(-1,0,0,1,1755.61,-89.1133)"
   id="g116">
                    <path
   d="m 1054.33,1358.62 -33.98,-7.54"
   style="fill:none;stroke:#000000;stroke-width:3px"
   id="path114" />
                </g>
                <g
   transform="matrix(-1,0,0,1,1755.61,-89.1133)"
   id="g120">
                    <path
   d="m 1038.53,1365.87 -17.41,-4.23"
   style="fill:none;stroke:#000000;stroke-width:3px"
   id="path118" />
                </g>
                <g
   transform="matrix(-1,0,0,1,1755.61,-89.1133)"
   id="g124">
                    <path
   d="m 1064.87,1340.92 -43.75,20.72"
   style="fill:none;stroke:#000000;stroke-width:3px"
   id="path122" />
                </g>
                <g
   transform="matrix(-1,0,0,1,1755.61,-89.1133)"
   id="g128">
                    <path
   d="m 1034.84,1343.34 -15.25,7.74"
   style="fill:none;stroke:#000000;stroke-width:3px"
   id="path126" />
                </g>
            </g>
            <g
   transform="matrix(-0.731945,-0.105151,-0.140062,0.974962,1652.62,51.3683)"
   id="g133">
                <path
   d="m 1071.81,1246.3 2.61,14.69 10.51,-11.01 -6.11,13.7 15.07,-3.83 -12.9,8.37 14.84,4.56 -15.59,0.38 9.91,11.51 -13.33,-7.74 1.83,14.8 -6.84,-13.39 -6.84,13.39 1.83,-14.8 -66.03,2.52 64.04,-15.77 -6.12,-13.7 10.51,11.01 z"
   style="fill:#91f5ff;fill-opacity:0.6"
   id="path131" />
            </g>
            <g
   transform="matrix(-1,0,0,1,1755.61,-89.1133)"
   id="g137">
                <path
   d="m 1217.32,1005.99 0.03,1.83 c 1.52,41.28 -4.24,105.77 -51.16,146.65 -1.74,1.56 -3.52,3.02 -5.33,4.4 2.02,0.32 4.08,0.69 6.19,1.16 23.8,5.11 44.8,17.67 66.45,34.76 27.43,21.64 49.35,48.39 53.16,90.84 5.39,59.89 -25.42,93.06 -60.54,100.08 -28.04,5.61 -59.6,-0.82 -80.43,-22.97 -4.29,-0.31 -8.98,-2.35 -14.16,-6.95 -0.75,-0.66 -1.45,-1.34 -2.12,-2.03 -47.16,20.13 -111.01,47.38 -111.01,47.38 l -4.27,-0.82 -17.554,-259.81 c 2.204,-1.43 4.424,-2.83 6.984,-3.9 -41.735,-8.74 -85.725,-14.15 -130.524,-19.73 -6.039,-87.79 2.694,-188.458 2.694,-188.458 3.389,-0.116 6.739,-0.234 10.012,-0.353 -2.602,-33.4 -5.367,-68.573 -5.726,-71.886 -0.697,-6.445 -57.724,-7.405 -68.112,1.979 -5.52,4.985 -21.454,49.796 -29.892,71.06 9.027,11.831 9.912,48.943 -28.855,40.49 -41.111,-8.964 -15.61,-39.593 1.163,-47.154 0.576,-0.259 1.133,-0.506 1.672,-0.741 6.246,-30.579 22.72,-108.068 29.62,-109.985 8.602,-2.389 119.038,-45.406 128.212,-35.853 9.653,10.052 31.472,72.626 31.472,72.626 1.629,-8.844 32.865,-115.023 40.643,-117.151 7.779,-2.127 57.711,-19.601 61.971,-13.779 4.27,5.822 82.09,154.41 82.09,154.41 0,0 87.26,-70.047 104.99,-67.475 15.06,2.184 62.82,97.659 76.89,126.438 13.78,0.944 43.95,27.525 11.53,46.663 -33.18,19.588 -38.38,-17.877 -32.83,-33.716 0.09,-0.251 0.18,-0.497 0.26,-0.741 -17.48,-21.154 -37.36,-46.168 -39.67,-41.469 -2.53,5.152 -17.08,54.082 -25.68,83.297 0.04,0.048 9.39,10.885 -6.37,21.708 l -0.96,-0.42 z m -48.69,200.66 c 3.14,22.41 9.08,71.74 6.11,107.76 2.44,5.4 3.69,11.28 3.16,17 10.28,9.72 25.14,13.75 39.05,10.68 18.3,-4.03 28.26,-30.15 23.42,-58.47 -4.02,-23.58 -34.71,-63.22 -71.74,-76.97 z"
   style="fill:url(#_Radial1)"
   id="path135" />
            </g>
            <g
   transform="matrix(-1,0,0,1,1755.61,-89.1133)"
   id="g141">
                <path
   d="m 1016.63,1283.2 36.13,-138.16 -39.99,137.1 c -0.29,1.06 0.33,2.16 1.4,2.46 1.06,0.29 2.16,-0.33 2.46,-1.4 z"
   style="fill:#ffffff"
   id="path139" />
            </g>
            <g
   transform="matrix(-1,0,0,1,1755.61,-89.1133)"
   id="g145">
                <path
   d="m 1016.32,1283.84 78.44,-111.87 -81.68,109.53 c -0.65,0.89 -0.45,2.14 0.45,2.79 0.89,0.65 2.15,0.45 2.79,-0.45 z"
   style="fill:#ffffff"
   id="path143" />
            </g>
            <g
   transform="matrix(-1,0,0,1,1755.61,-89.1133)"
   id="g149">
                <path
   d="m 1013.46,1284.24 94.66,71.92 -92.18,-75.06 c -0.87,-0.69 -2.13,-0.53 -2.81,0.33 -0.68,0.87 -0.53,2.13 0.33,2.81 z"
   style="fill:#ffffff"
   id="path147" />
            </g>
            <g
   transform="matrix(-1,0,0,1,1755.61,-89.1133)"
   id="g153">
                <path
   d="m 1012.77,1283.18 21.33,72.98 -17.47,-74 c -0.28,-1.07 -1.37,-1.71 -2.44,-1.42 -1.07,0.28 -1.7,1.37 -1.42,2.44 z"
   style="fill:#ffffff"
   id="path151" />
            </g>
            <g
   transform="matrix(-1,0,0,1,1755.61,-89.1133)"
   id="g157">
                <path
   d="m 1015.8,1284.34 119.7,-80.81 -121.89,77.47 c -0.93,0.6 -1.19,1.84 -0.58,2.77 0.6,0.92 1.84,1.18 2.77,0.57 z"
   style="fill:#ffffff"
   id="path155" />
            </g>
            <g
   transform="matrix(-1,0,0,1,1755.61,-89.1133)"
   id="g161">
                <path
   d="m 1014.48,1284.66 c 0,0 40.32,3.65 69.46,6.98 16.74,1.92 29.79,3.72 29.37,4.68 0.46,-0.94 -12.53,-3.28 -29.21,-5.87 -29.01,-4.5 -69.18,-9.77 -69.18,-9.77 -1.1,-0.12 -2.08,0.67 -2.21,1.77 -0.12,1.1 0.67,2.09 1.77,2.21 z"
   style="fill:#ffffff"
   id="path159" />
            </g>
            <g
   transform="matrix(-1,0,0,1,1755.61,-89.1133)"
   id="g165">
                <path
   d="m 1072.37,1260.9 -57.67,21.77 58.96,-17.98 c 1.05,-0.36 1.61,-1.49 1.25,-2.54 -0.35,-1.04 -1.49,-1.6 -2.54,-1.25 z"
   style="fill:#ffffff"
   id="path163" />
            </g>
            <g
   transform="matrix(-1,0,0,1,1755.61,-89.1133)"
   id="g169">
                <path
   d="m 1172.84,1381.2 c 56.64,7.2 85.82,-13.57 97.52,-61.79 28.94,-119.18 -115.06,-160.47 -115.06,-160.47 l 0.67,-29.89 c 49.66,-94.24 35.89,-136.333 35.89,-136.333 9.47,-11.029 2,-25.694 2,-25.694 2.74,-20.104 34.88,-91.417 47.73,-76.397 3.74,4.37 6.61,8.887 8.8,13.093 -3.95,10.617 -16.96,54.391 -24.9,81.363 0.04,0.048 9.39,10.885 -6.37,21.708 l -1.8,-0.8 0.03,1.83 c 1.52,41.28 -4.24,105.77 -51.16,146.65 -1.79,1.48 -3.57,2.95 -5.33,4.4 2.06,0.34 4.12,0.71 6.19,1.16 23.8,5.11 44.8,17.67 66.45,34.76 27.43,21.64 49.35,48.39 53.16,90.84 5.39,59.89 -25.42,93.06 -60.54,100.08 -17.54,3.51 -36.47,2.31 -53.28,-4.51 z m 43.4,-570.012 c 8.33,-4.491 15.05,-7.114 18.75,-6.578 15.06,2.184 62.82,97.659 76.89,126.438 13.78,0.944 43.95,27.525 11.53,46.663 -1.3,0.768 -2.56,1.448 -3.77,2.043 -3.94,-27.995 -20.83,-41.57 -20.83,-41.57 -10.3,-44.1 -61.55,-103.885 -82.57,-126.996 z M 755.256,970.133 c -0.686,-0.125 -1.385,-0.265 -2.099,-0.421 -41.111,-8.964 -15.61,-39.593 1.163,-47.154 0.576,-0.259 1.133,-0.506 1.672,-0.741 6.246,-30.579 22.72,-108.068 29.62,-109.985 8.602,-2.389 119.038,-45.406 128.212,-35.853 3.547,3.693 8.735,14.476 13.881,26.641 C 914.862,790.449 804.033,814.027 796.088,824.061 788.143,834.094 768,921.31 768,921.31 c -13.308,10.783 -13.924,33.992 -12.744,48.823 z M 884.688,914.56 c 49.64,-6.801 264.362,-32.444 258.152,33.868 -0.02,0.43 -0.07,0.666 -0.07,0.666 0.02,-0.22 0.05,-0.439 0.07,-0.666 0.22,-5.202 -4.3,-38.763 -161.972,-23.605 l -105.171,3.987 c 0.022,-0.257 0.033,-0.388 0.033,-0.388 3.389,-0.116 6.739,-0.234 10.012,-0.353 -0.351,-4.499 -0.704,-9.03 -1.054,-13.509 z m 245.202,-42.346 c -18.67,21.552 -74.39,-111.209 -84.53,-120.414 -10.15,-9.209 -71.546,5.298 -71.731,5.342 5.294,-14.506 9.915,-25.032 12.31,-25.688 7.779,-2.127 57.711,-19.601 61.971,-13.779 4.27,5.822 82.09,154.41 82.09,154.41 z"
   style="fill-opacity:0.15"
   id="path167" />
            </g>
        </g>
        <g
   id="colour1"
   serif:id="colour">
            <g
   id="line1"
   serif:id="line">
            </g>
        </g>
    </g>
    <defs
   id="defs181">
        <radialGradient
   id="_Radial1"
   cx="0"
   cy="0"
   r="1"
   gradientUnits="userSpaceOnUse"
   gradientTransform="matrix(84.8034,-333.033,333.033,84.8034,1011.29,1292.19)"><stop
     offset="0"
     style="stop-color:rgb(171,247,255);stop-opacity:0.6"
     id="stop176" /><stop
     offset="1"
     style="stop-color:rgb(171,247,255);stop-opacity:0"
     id="stop178" /></radialGradient>
    </defs>
</svg>
