<?xml version="1.0" encoding="UTF-8" standalone="no"?>
<!DOCTYPE svg PUBLIC "-//W3C//DTD SVG 1.1//EN" "http://www.w3.org/Graphics/SVG/1.1/DTD/svg11.dtd">
<svg width="100%" height="100%" viewBox="0 0 630 723" version="1.1" xmlns="http://www.w3.org/2000/svg" xmlns:xlink="http://www.w3.org/1999/xlink" xml:space="preserve" xmlns:serif="http://www.serif.com/" style="fill-rule:evenodd;clip-rule:evenodd;stroke-linecap:round;stroke-linejoin:round;stroke-miterlimit:1.5;">
    <g transform="matrix(1,0,0,1,-720,-696)">
        <g id="colour" transform="matrix(-1,0,0,1,1755.61,89.1133)">
            <g transform="matrix(-1,0,0,1,1755.61,-89.1133)">
                <path d="M1159.11,1154.54C1159.11,1154.54 1184.46,1262.21 1171.72,1339.33L918.879,1328.48L924.249,1173.68L1159.11,1154.54Z" style="fill:rgb(136,84,239);"/>
            </g>
            <g transform="matrix(-1,0,0,1,1771.78,-76.7328)">
                <path d="M1172.15,1190.65C1213.15,1198.36 1251.86,1243.86 1256.53,1271.24C1261.37,1299.56 1251.41,1325.68 1233.12,1329.71C1212.4,1334.28 1189.62,1323.12 1182.92,1300.91C1179.53,1289.68 1170.01,1281.52 1158.44,1283.46C1146.88,1285.4 1138.72,1296.43 1141,1307.94C1152.01,1363.73 1200.97,1381.6 1242.29,1373.33C1277.4,1366.31 1308.21,1333.14 1302.82,1273.25C1299.01,1230.8 1277.1,1204.05 1249.66,1182.4C1225.45,1163.3 1202.05,1149.85 1174.65,1146.15C1144.51,1142.08 1123.91,1181.59 1172.15,1190.65Z" style="fill:rgb(83,156,239);"/>
            </g>
            <g transform="matrix(0.988505,0.151187,-0.151187,0.988505,188.691,-45.39)">
                <path d="M810.218,831.016C809.837,829.93 800.046,798.674 800.046,798.674L651.85,785.19L487.862,874.97L491.319,900.162C497.785,956.237 524.241,1053.07 638.047,1059.56C806.079,1069.15 840.069,916.034 810.218,831.016Z" style="fill:rgb(255,216,187);"/>
            </g>
            <g transform="matrix(-0.962387,-0.19722,0.241093,-1.17648,1247.8,2313.86)">
                <path d="M722.752,960.164C725.295,958.664 745.795,956.079 749.97,959.471C754.377,963.051 735.452,974.479 730.097,974.407C725.864,974.35 717.983,962.977 722.752,960.164Z" style="fill:rgb(237,182,141);"/>
            </g>
            <g transform="matrix(0.988505,0.151187,-0.151187,0.988505,188.691,-45.39)">
                <path d="M704.791,903.123C704.791,903.123 736.587,953.188 708.081,963.232C679.574,973.277 610.421,961.108 611.818,929.938C612.839,907.139 635.783,891.518 635.783,891.518L704.791,903.123ZM789.402,887.728L744.488,896.012C740.793,917.407 738.225,948.991 753.326,956.235C776.666,967.431 790.124,958.528 796.232,943.188C800.166,933.309 798.958,908.004 789.402,887.728Z" style="fill:white;"/>
            </g>
            <g transform="matrix(1.02778,0.372388,-0.301433,0.831951,318.855,-31.0566)">
                <path d="M641.619,1016.26C641.619,1016.26 610.25,997.878 628.509,979.805C640.253,968.179 665.404,979.13 670.587,1003.84" style="fill:rgb(244,140,140);"/>
            </g>
            <g transform="matrix(0.988505,0.151187,-0.151187,0.988505,188.691,-45.39)">
                <path d="M736.17,701.648C733.222,693.152 686.292,592.916 678.282,591.988C670.271,591.061 618.271,581.337 614.935,587.737C611.6,594.137 557.136,752.783 557.136,752.783C557.136,752.783 460.295,696.733 443.154,701.957C426.013,707.18 383.59,847.203 383.59,847.203L389.17,877.03C400.539,866.289 437.139,793.699 441.848,800.461C446.557,807.222 489.404,899.418 489.404,899.418C640.568,802.525 749.042,788.012 811.642,832.805C811.642,832.805 802.13,705.746 801.845,699.269C801.56,692.793 857.785,683.222 869.473,690.927C877.291,696.081 910.971,761.136 916.058,766.489C921.145,771.841 938.646,757.114 938.646,757.114C938.646,757.114 897.322,642.216 888.458,641.155C879.594,640.094 763.923,614.268 756.299,625.099C748.278,636.494 736.17,701.648 736.17,701.648Z" style="fill:rgb(136,84,239);"/>
            </g>
            <g transform="matrix(0.988505,0.151187,-0.151187,0.988505,188.691,-45.39)">
                <path d="M479.833,878.917C479.833,878.917 472.153,891.079 489.404,899.418C489.404,899.418 690.351,754.75 811.642,832.805C811.642,832.805 825.611,818.294 809.877,809.174C809.877,809.174 699.047,720.871 479.833,878.917ZM386.329,838.551C372.87,841.478 346.917,872.395 381.919,886.436C417.682,900.782 417.153,862.962 409.274,848.144C402.022,834.504 399.788,835.625 386.329,838.551ZM910.625,755.276C902.318,766.848 905.963,807.069 944.409,792.314C983.693,777.237 953.855,750.816 936.13,745.878C919.816,741.333 918.932,743.704 910.625,755.276ZM673.193,689.549C662.409,698.117 650.611,732.23 688.321,731.878C726.853,731.517 710.45,694.843 700.012,687.717C689.283,680.39 683.084,681.691 673.193,689.549Z" style="fill:rgb(255,195,67);"/>
            </g>
            <g transform="matrix(-1.1758,-0.179833,-0.160056,1.0465,1703.51,145.359)">
                <path d="M596.264,765.581C596.264,765.581 566.171,904.771 568.425,994.44C569.294,1029.02 790.268,1078.83 797.825,1029.71C838.369,766.18 860.883,800.742 596.264,765.581Z" style="fill:rgb(91,106,115);"/>
            </g>
            <g transform="matrix(-0.977244,-0.166481,-0.167939,0.985797,1583.61,197.346)">
                <path d="M596.264,852.563C596.264,852.563 584.744,901.418 585.605,935.424C585.93,948.245 795.309,970.504 799.463,942.26C811.275,861.948 830.059,876.561 596.264,852.563Z" style="fill:rgb(44,61,71);"/>
            </g>
            <g transform="matrix(-1,0,0,1,1755.61,-89.1133)">
                <path d="M888.531,1014.92C888.531,1014.92 884.104,1078.08 894.832,1122.27C898.666,1138.07 1127.82,1125.84 1126.27,1089.78C1124.48,1047.94 1127.15,1024.5 1113.56,1012.75C1093.85,995.696 1039.92,1003.25 888.531,1014.92ZM897.881,1027.65C897.881,1027.65 894.828,1077.73 901.38,1111.11C903.851,1123.69 1112.2,1110.78 1111.52,1082.24C1109.58,1001.1 1130.39,1012.38 897.881,1027.65Z" style="fill:rgb(119,129,141);"/>
            </g>
            <g transform="matrix(-1.77442,0,0,1.96251,1728.95,-1306.15)">
                <path d="M557.304,1284.18C557.304,1284.18 650.183,1297.34 648.676,1299.45C640.08,1302.78 558.908,1334.1 558.908,1334.1C558.908,1334.1 461.304,1315.54 423.553,1305.22C423.553,1305.22 408.942,1202.27 408.684,1182.18C408.684,1182.18 533.883,1194.2 550.731,1199.51C550.731,1199.51 554.802,1245.38 557.304,1284.18Z" style="fill:rgb(142,167,184);"/>
            </g>
            <g transform="matrix(-0.67813,-0.0513805,-0.0541007,0.714032,1540.3,318.848)">
                <path d="M862.482,1210.75C847.102,1213.35 833.386,1229.25 848.764,1252.07C863.448,1273.87 892.971,1258.08 894.306,1240.39C895.509,1224.43 881.687,1207.5 862.482,1210.75Z" style="fill:rgb(158,182,199);"/>
            </g>
            <g transform="matrix(-1,0,0,1,1755.61,-89.1133)">
                <path d="M752.009,1108.43C751.914,1106.38 751.856,1104.57 751.838,1103.01C751.838,1103.01 973.993,1126.6 1003.89,1137.01C1003.89,1137.01 1011.11,1227.03 1015.55,1303.17C1015.55,1303.17 1180.36,1329 1177.68,1333.15C1162.99,1339.44 1028.88,1396.66 1018.98,1400.89L998.754,1141.01C918.869,1126.01 837.832,1117.53 752.009,1108.43Z" style="fill:rgb(157,183,200);"/>
            </g>
            <g transform="matrix(-1,0,0,1,1755.61,-89.1133)">
                <path d="M996.245,1140.54C999.04,1139.35 1001.95,1136.33 1003.89,1137.01C1003.89,1137.01 1011.11,1227.03 1015.55,1303.17L1021.93,1392.5L1167.17,1329.62L1167.17,1329.62L1176.9,1333.49C1158.09,1341.54 1018.4,1401.14 1018.4,1401.14C1018.4,1401.14 1016.88,1400.82 1014.08,1400.22C1008.27,1326.38 998.344,1172.84 996.245,1140.54Z" style="fill:rgb(124,152,170);"/>
            </g>
            <g transform="matrix(-0.729622,-0.683851,-0.683851,0.729622,2343.03,1074.52)">
                <path d="M1157.28,1336.21C1142.52,1337.15 1124.91,1338.79 1122.77,1315.7C1120.17,1287.67 1150.88,1270.52 1169.46,1275.21C1193.38,1281.24 1189.58,1334.15 1157.28,1336.21Z" style="fill:rgb(255,216,187);"/>
            </g>
            <g transform="matrix(-0.851084,-0.480363,-0.456062,0.80803,2231.93,726.256)">
                <path d="M1202.23,1314.57L1197,1284.06C1194.61,1275.82 1177.46,1278.86 1176.18,1285.03L1174.36,1319.34C1184.47,1328.08 1194.31,1324.83 1202.23,1314.57Z" style="fill:rgb(64,96,122);"/>
            </g>
            <g transform="matrix(-0.928044,-0.37247,-0.37247,0.928044,2172.54,430.48)">
                <path d="M1131.52,1247.16L1136.37,1247.59C1136.37,1247.59 1137.34,1244.4 1143.86,1245.4C1150.88,1246.49 1150.21,1256.83 1137.76,1253.56C1137.48,1253.49 1136.35,1252.31 1136.12,1252.23C1135.06,1251.85 1135.34,1252.35 1134.13,1252.01" style="fill:rgb(236,71,71);"/>
            </g>
            <g transform="matrix(-0.511376,-0.288627,-0.3694,0.654486,1717.61,695.864)">
                <path d="M1191.66,1284.11C1191.66,1284.11 1191.48,1248.85 1180.51,1238.22C1173.66,1231.57 1135.84,1226.3 1135.84,1226.3C1126.27,1231.25 1136.13,1235.4 1136.13,1235.4C1136.13,1235.4 1166.72,1240.53 1171.88,1244.8C1178.14,1249.98 1179.45,1284.37 1179.45,1284.37C1179.45,1284.37 1186.43,1288.79 1191.66,1284.11Z" style="fill:rgb(195,207,212);"/>
            </g>
            <g id="line">
                <g transform="matrix(0.999588,-0.0286994,0.0286994,0.999588,26.8087,19.0644)">
                    <path d="M384.892,867.402C385.255,867.602 385.719,867.574 386.059,867.295C387.13,866.441 389.537,865.185 391.554,863.653C393.008,862.548 394.251,861.288 394.846,859.976C395.845,857.772 395.38,855.201 390.932,852.758C389.493,851.978 388.264,851.885 387.24,852.215C386.202,852.55 385.317,853.345 384.649,854.559C384.06,855.628 383.618,857.049 383.326,858.692C382.751,861.933 382.709,866.079 382.89,869.923C383.167,875.81 383.952,880.97 383.952,880.97C384,881.355 384.351,881.63 384.736,881.583C385.122,881.535 385.396,881.184 385.349,880.799C385.349,880.799 384.875,875.681 384.864,869.875C384.863,869.06 384.871,868.231 384.892,867.402ZM384.961,865.5C385.072,863.231 385.293,861.027 385.686,859.148C385.952,857.877 386.292,856.765 386.747,855.909C387.091,855.263 387.471,854.769 388.008,854.596C388.496,854.438 389.064,854.578 389.753,854.947C392.493,856.395 393.263,857.661 392.679,859.019C392.131,860.293 390.748,861.458 389.321,862.503C387.671,863.71 385.933,864.743 384.961,865.5Z"/>
                </g>
                <g transform="matrix(0.870247,0.492615,-0.447573,0.790677,815.653,-107.444)">
                    <path d="M384.881,867.487C385.23,867.705 385.678,867.69 386.02,867.409C387.075,866.571 389.424,865.347 391.42,863.851C392.885,862.752 394.151,861.49 394.779,860.18C395.872,857.9 395.509,855.163 390.89,852.622C389.609,851.928 388.501,851.786 387.56,852.006C386.487,852.257 385.582,852.976 384.877,854.114C384.223,855.171 383.727,856.619 383.399,858.323C382.892,860.966 382.751,864.253 382.815,867.505C382.952,874.33 383.953,880.988 383.953,880.988C384.005,881.411 384.36,881.709 384.745,881.652C385.13,881.595 385.4,881.204 385.348,880.781C385.348,880.781 384.862,875.577 384.857,869.715C384.857,868.98 384.864,868.234 384.881,867.487ZM384.955,865.419C385.073,863.079 385.309,860.812 385.734,858.91C386.026,857.601 386.401,856.48 386.918,855.671C387.237,855.173 387.603,854.807 388.078,854.697C388.567,854.584 389.129,854.726 389.795,855.083C390.972,855.706 391.795,856.312 392.314,856.932C392.903,857.636 392.971,858.322 392.669,858.984C392.209,859.996 391.214,860.93 390.115,861.802C388.248,863.282 386.067,864.542 384.955,865.419Z"/>
                </g>
                <g transform="matrix(-1.22655,0.370163,0.249723,0.827465,1257.64,6.68778)">
                    <path d="M384.639,866.932C384.465,873.778 385.191,880.739 385.191,880.739C385.245,881.181 385.047,881.605 384.749,881.685C384.451,881.766 384.165,881.472 384.11,881.03C384.11,881.03 383.089,873.848 383.057,866.74C383.041,863.164 383.29,859.613 383.989,856.946C384.554,854.789 385.432,853.187 386.618,852.393C387.674,851.687 389.009,851.603 390.676,852.492C392.352,853.41 393.433,854.348 394.068,855.246C394.78,856.253 395.031,857.277 395.008,858.244C394.988,859.095 394.751,859.949 394.294,860.754C393.594,861.987 392.326,863.176 390.914,864.202C388.985,865.605 386.796,866.747 385.791,867.545C385.398,867.868 384.902,867.656 384.684,867.073C384.667,867.027 384.652,866.98 384.639,866.932ZM384.671,865.939C384.742,865.732 384.855,865.553 385.002,865.432C386.002,864.585 388.184,863.326 390.108,861.84C391.247,860.96 392.297,860.019 392.855,858.995C393.004,858.721 393.118,858.456 393.121,858.171C393.125,857.775 392.896,857.454 392.536,857.046C391.996,856.433 391.172,855.83 390.009,855.213C388.86,854.587 387.961,854.566 387.255,855.11C386.067,856.025 385.468,858.272 385.089,860.951C384.869,862.507 384.738,864.208 384.671,865.939Z"/>
                </g>
                <g transform="matrix(0.988505,0.151187,-0.151187,0.988505,188.691,-45.39)">
                    <path d="M698.018,685.263C697.624,679.352 697.003,672.392 696.331,665.234C695.586,657.291 694.731,649.114 694.011,641.854C692.697,628.615 691.721,618.454 691.721,618.454C691.663,618.019 691.969,617.62 692.403,617.562C692.837,617.504 693.237,617.81 693.295,618.244C693.295,618.244 694.721,626.662 696.411,638.178C697.017,642.304 697.644,646.826 698.256,651.501C699.757,662.974 701.164,675.348 702.007,684.958C702.091,686.058 701.266,687.02 700.165,687.105C699.065,687.189 698.103,686.364 698.018,685.263Z"/>
                </g>
                <g transform="matrix(0.988505,0.151187,-0.151187,0.988505,188.691,-45.39)">
                    <path d="M665.058,694.09C658.721,686.682 650.642,675.758 643.365,665.15C640.531,661.018 637.82,656.936 635.378,653.132C629.841,644.503 625.663,637.339 624.334,634.43C624.141,634.036 624.305,633.561 624.698,633.368C625.092,633.175 625.567,633.338 625.76,633.732C627.226,636.532 631.813,643.32 637.66,651.594C640.257,655.268 643.094,659.235 646.029,663.268C653.52,673.557 661.652,684.259 668.07,691.459C668.797,692.29 668.711,693.555 667.88,694.281C667.048,695.007 665.784,694.921 665.058,694.09Z"/>
                </g>
                <g transform="matrix(0.988505,0.151187,-0.127931,0.836453,167.958,90.1673)">
                    <path d="M492.596,896.655C492.596,896.655 494.144,895.032 497.195,892.323C497.809,891.778 498.489,891.2 499.236,890.593C501.966,888.373 505.542,885.712 509.778,882.564C512.067,880.862 514.569,879.058 517.234,877.099C520.679,874.568 524.348,871.686 528.428,868.918C529.233,868.371 530.061,867.844 530.907,867.326C532.811,866.16 534.793,865.059 536.826,863.899C537.305,863.579 537.914,863.779 538.185,864.346C538.455,864.912 538.286,865.632 537.807,865.952C535.551,867.681 533.422,869.44 531.281,871.028C530.237,871.803 529.182,872.512 528.153,873.223C525.053,875.364 522.086,877.332 519.351,879.282C518.065,880.199 516.827,881.106 515.637,881.993C509.227,886.77 504.18,890.983 500.491,893.875C499.788,894.425 499.127,894.914 498.521,895.36C495.519,897.569 493.885,898.734 493.885,898.734C493.399,899.154 492.716,899.03 492.361,898.456C492.005,897.883 492.111,897.076 492.596,896.655Z"/>
                </g>
                <g transform="matrix(-0.468541,-0.26445,-0.419102,0.742545,1730.41,553.641)">
                    <path d="M1169.85,1289.82C1172.78,1291.53 1177.89,1292.79 1185.01,1292.84C1193.02,1292.89 1199.22,1291 1202.43,1288.6" style="fill:none;stroke:black;stroke-width:4.21px;"/>
                </g>
                <g transform="matrix(-1,0,0,1,1755.61,-89.1133)">
                    <path d="M1021.84,1373.54L1084.09,1344.95L1018.5,1331.19" style="fill:none;stroke:black;stroke-width:3px;"/>
                </g>
                <g transform="matrix(-1,0,0,1,1755.61,-89.1133)">
                    <path d="M1070.74,1351.08L1019.59,1340.05" style="fill:none;stroke:black;stroke-width:3px;"/>
                </g>
                <g transform="matrix(-1,0,0,1,1755.61,-89.1133)">
                    <path d="M1054.33,1358.62L1020.35,1351.08" style="fill:none;stroke:black;stroke-width:3px;"/>
                </g>
                <g transform="matrix(-1,0,0,1,1755.61,-89.1133)">
                    <path d="M1038.53,1365.87L1021.12,1361.64" style="fill:none;stroke:black;stroke-width:3px;"/>
                </g>
                <g transform="matrix(-1,0,0,1,1755.61,-89.1133)">
                    <path d="M1064.87,1340.92L1021.12,1361.64" style="fill:none;stroke:black;stroke-width:3px;"/>
                </g>
                <g transform="matrix(-1,0,0,1,1755.61,-89.1133)">
                    <path d="M1034.84,1343.34L1019.59,1351.08" style="fill:none;stroke:black;stroke-width:3px;"/>
                </g>
            </g>
            <g transform="matrix(-0.731945,-0.105151,-0.140062,0.974962,1652.62,51.3683)">
                <path d="M1071.81,1246.3L1074.42,1260.99L1084.93,1249.98L1078.82,1263.68L1093.89,1259.85L1080.99,1268.22L1095.83,1272.78L1080.24,1273.16L1090.15,1284.67L1076.82,1276.93L1078.65,1291.73L1071.81,1278.34L1064.97,1291.73L1066.8,1276.93L1000.77,1279.45L1064.81,1263.68L1058.69,1249.98L1069.2,1260.99L1071.81,1246.3Z" style="fill:rgb(145,245,255);fill-opacity:0.6;"/>
            </g>
            <g transform="matrix(-1,0,0,1,1755.61,-89.1133)">
                <path d="M1217.32,1005.99L1217.35,1007.82C1218.87,1049.1 1213.11,1113.59 1166.19,1154.47C1164.45,1156.03 1162.67,1157.49 1160.86,1158.87C1162.88,1159.19 1164.94,1159.56 1167.05,1160.03C1190.85,1165.14 1211.85,1177.7 1233.5,1194.79C1260.93,1216.43 1282.85,1243.18 1286.66,1285.63C1292.05,1345.52 1261.24,1378.69 1226.12,1385.71C1198.08,1391.32 1166.52,1384.89 1145.69,1362.74C1141.4,1362.43 1136.71,1360.39 1131.53,1355.79C1130.78,1355.13 1130.08,1354.45 1129.41,1353.76C1082.25,1373.89 1018.4,1401.14 1018.4,1401.14L1014.13,1400.32L996.576,1140.51C998.78,1139.08 1001,1137.68 1003.56,1136.61C961.825,1127.87 917.835,1122.46 873.036,1116.88C866.997,1029.09 875.73,928.422 875.73,928.422C879.119,928.306 882.469,928.188 885.742,928.069C883.14,894.669 880.375,859.496 880.016,856.183C879.319,849.738 822.292,848.778 811.904,858.162C806.384,863.147 790.45,907.958 782.012,929.222C791.039,941.053 791.924,978.165 753.157,969.712C712.046,960.748 737.547,930.119 754.32,922.558C754.896,922.299 755.453,922.052 755.992,921.817C762.238,891.238 778.712,813.749 785.612,811.832C794.214,809.443 904.65,766.426 913.824,775.979C923.477,786.031 945.296,848.605 945.296,848.605C946.925,839.761 978.161,733.582 985.939,731.454C993.718,729.327 1043.65,711.853 1047.91,717.675C1052.18,723.497 1130,872.085 1130,872.085C1130,872.085 1217.26,802.038 1234.99,804.61C1250.05,806.794 1297.81,902.269 1311.88,931.048C1325.66,931.992 1355.83,958.573 1323.41,977.711C1290.23,997.299 1285.03,959.834 1290.58,943.995C1290.67,943.744 1290.76,943.498 1290.84,943.254C1273.36,922.1 1253.48,897.086 1251.17,901.785C1248.64,906.937 1234.09,955.867 1225.49,985.082C1225.53,985.13 1234.88,995.967 1219.12,1006.79L1218.16,1006.37L1217.32,1005.99ZM1168.63,1206.65C1171.77,1229.06 1177.71,1278.39 1174.74,1314.41C1177.18,1319.81 1178.43,1325.69 1177.9,1331.41C1188.18,1341.13 1203.04,1345.16 1216.95,1342.09C1235.25,1338.06 1245.21,1311.94 1240.37,1283.62C1236.35,1260.04 1205.66,1220.4 1168.63,1206.65Z" style="fill:url(#_Radial1);"/>
            </g>
            <g transform="matrix(-1,0,0,1,1755.61,-89.1133)">
                <path d="M1016.63,1283.2L1052.76,1145.04L1012.77,1282.14C1012.48,1283.2 1013.1,1284.3 1014.17,1284.6C1015.23,1284.89 1016.33,1284.27 1016.63,1283.2Z" style="fill:white;"/>
            </g>
            <g transform="matrix(-1,0,0,1,1755.61,-89.1133)">
                <path d="M1016.32,1283.84L1094.76,1171.97L1013.08,1281.5C1012.43,1282.39 1012.63,1283.64 1013.53,1284.29C1014.42,1284.94 1015.68,1284.74 1016.32,1283.84Z" style="fill:white;"/>
            </g>
            <g transform="matrix(-1,0,0,1,1755.61,-89.1133)">
                <path d="M1013.46,1284.24L1108.12,1356.16L1015.94,1281.1C1015.07,1280.41 1013.81,1280.57 1013.13,1281.43C1012.45,1282.3 1012.6,1283.56 1013.46,1284.24Z" style="fill:white;"/>
            </g>
            <g transform="matrix(-1,0,0,1,1755.61,-89.1133)">
                <path d="M1012.77,1283.18L1034.1,1356.16L1016.63,1282.16C1016.35,1281.09 1015.26,1280.45 1014.19,1280.74C1013.12,1281.02 1012.49,1282.11 1012.77,1283.18Z" style="fill:white;"/>
            </g>
            <g transform="matrix(-1,0,0,1,1755.61,-89.1133)">
                <path d="M1015.8,1284.34L1135.5,1203.53L1013.61,1281C1012.68,1281.6 1012.42,1282.84 1013.03,1283.77C1013.63,1284.69 1014.87,1284.95 1015.8,1284.34Z" style="fill:white;"/>
            </g>
            <g transform="matrix(-1,0,0,1,1755.61,-89.1133)">
                <path d="M1014.48,1284.66C1014.48,1284.66 1054.8,1288.31 1083.94,1291.64C1100.68,1293.56 1113.73,1295.36 1113.31,1296.32C1113.77,1295.38 1100.78,1293.04 1084.1,1290.45C1055.09,1285.95 1014.92,1280.68 1014.92,1280.68C1013.82,1280.56 1012.84,1281.35 1012.71,1282.45C1012.59,1283.55 1013.38,1284.54 1014.48,1284.66Z" style="fill:white;"/>
            </g>
            <g transform="matrix(-1,0,0,1,1755.61,-89.1133)">
                <path d="M1072.37,1260.9L1014.7,1282.67L1073.66,1264.69C1074.71,1264.33 1075.27,1263.2 1074.91,1262.15C1074.56,1261.11 1073.42,1260.55 1072.37,1260.9Z" style="fill:white;"/>
            </g>
            <g transform="matrix(-1,0,0,1,1755.61,-89.1133)">
                <path d="M1172.84,1381.2C1229.48,1388.4 1258.66,1367.63 1270.36,1319.41C1299.3,1200.23 1155.3,1158.94 1155.3,1158.94L1155.97,1129.05C1205.63,1034.81 1191.86,992.717 1191.86,992.717C1201.33,981.688 1193.86,967.023 1193.86,967.023C1196.6,946.919 1228.74,875.606 1241.59,890.626C1245.33,894.996 1248.2,899.513 1250.39,903.719C1246.44,914.336 1233.43,958.11 1225.49,985.082C1225.53,985.13 1234.88,995.967 1219.12,1006.79L1217.32,1005.99L1217.35,1007.82C1218.87,1049.1 1213.11,1113.59 1166.19,1154.47C1164.4,1155.95 1162.62,1157.42 1160.86,1158.87C1162.92,1159.21 1164.98,1159.58 1167.05,1160.03C1190.85,1165.14 1211.85,1177.7 1233.5,1194.79C1260.93,1216.43 1282.85,1243.18 1286.66,1285.63C1292.05,1345.52 1261.24,1378.69 1226.12,1385.71C1208.58,1389.22 1189.65,1388.02 1172.84,1381.2ZM1216.24,811.188C1224.57,806.697 1231.29,804.074 1234.99,804.61C1250.05,806.794 1297.81,902.269 1311.88,931.048C1325.66,931.992 1355.83,958.573 1323.41,977.711C1322.11,978.479 1320.85,979.159 1319.64,979.754C1315.7,951.759 1298.81,938.184 1298.81,938.184C1288.51,894.084 1237.26,834.299 1216.24,811.188ZM755.256,970.133C754.57,970.008 753.871,969.868 753.157,969.712C712.046,960.748 737.547,930.119 754.32,922.558C754.896,922.299 755.453,922.052 755.992,921.817C762.238,891.238 778.712,813.749 785.612,811.832C794.214,809.443 904.65,766.426 913.824,775.979C917.371,779.672 922.559,790.455 927.705,802.62C914.862,790.449 804.033,814.027 796.088,824.061C788.143,834.094 768,921.31 768,921.31C754.692,932.093 754.076,955.302 755.256,970.133ZM884.688,914.56C934.328,907.759 1149.05,882.116 1142.84,948.428C1142.82,948.858 1142.77,949.094 1142.77,949.094C1142.79,948.874 1142.82,948.655 1142.84,948.428C1143.06,943.226 1138.54,909.665 980.868,924.823L875.697,928.81C875.719,928.553 875.73,928.422 875.73,928.422C879.119,928.306 882.469,928.188 885.742,928.069C885.391,923.57 885.038,919.039 884.688,914.56ZM1129.89,872.214C1111.22,893.766 1055.5,761.005 1045.36,751.8C1035.21,742.591 973.814,757.098 973.629,757.142C978.923,742.636 983.544,732.11 985.939,731.454C993.718,729.327 1043.65,711.853 1047.91,717.675C1052.18,723.497 1130,872.085 1130,872.085L1129.89,872.214Z" style="fill-opacity:0.15;"/>
            </g>
        </g>
        <g id="colour1" serif:id="colour">
            <g id="line1" serif:id="line">
            </g>
        </g>
    </g>
    <defs>
        <radialGradient id="_Radial1" cx="0" cy="0" r="1" gradientUnits="userSpaceOnUse" gradientTransform="matrix(84.8034,-333.033,333.033,84.8034,1011.29,1292.19)"><stop offset="0" style="stop-color:rgb(171,247,255);stop-opacity:0.6"/><stop offset="1" style="stop-color:rgb(171,247,255);stop-opacity:0"/></radialGradient>
    </defs>
</svg>
