<?xml version="1.0" encoding="UTF-8" standalone="no"?>
<svg
   xmlns:dc="http://purl.org/dc/elements/1.1/"
   xmlns:cc="http://creativecommons.org/ns#"
   xmlns:rdf="http://www.w3.org/1999/02/22-rdf-syntax-ns#"
   xmlns:svg="http://www.w3.org/2000/svg"
   xmlns="http://www.w3.org/2000/svg"
   xmlns:sodipodi="http://sodipodi.sourceforge.net/DTD/sodipodi-0.dtd"
   xmlns:inkscape="http://www.inkscape.org/namespaces/inkscape"
   width="100%"
   height="100%"
   viewBox="0 0 799 920"
   version="1.1"
   xml:space="preserve"
   style="fill-rule:evenodd;clip-rule:evenodd;stroke-linecap:round;stroke-linejoin:round;stroke-miterlimit:1.5;"
   id="svg161"
   sodipodi:docname="jester_bluescreen.svg"
   inkscape:version="1.0.1 (3bc2e813f5, 2020-09-07)"><metadata
   id="metadata167"><rdf:RDF><cc:Work
       rdf:about=""><dc:format>image/svg+xml</dc:format><dc:type
         rdf:resource="http://purl.org/dc/dcmitype/StillImage" /></cc:Work></rdf:RDF></metadata><defs
   id="defs165" /><sodipodi:namedview
   pagecolor="#ffffff"
   bordercolor="#666666"
   borderopacity="1"
   objecttolerance="10"
   gridtolerance="10"
   guidetolerance="10"
   inkscape:pageopacity="0"
   inkscape:pageshadow="2"
   inkscape:window-width="1998"
   inkscape:window-height="1081"
   id="namedview163"
   showgrid="false"
   inkscape:zoom="0.69093801"
   inkscape:cx="-1.1040587"
   inkscape:cy="381.79347"
   inkscape:window-x="26"
   inkscape:window-y="23"
   inkscape:window-maximized="0"
   inkscape:current-layer="g159"
   inkscape:document-rotation="0" />
    <g
   transform="matrix(1,0,0,1,-352,-566)"
   id="g159">
        <g
   id="colour">
            
            
            
            
            
            
            
            
            
            
            
            
            
            
            
            
            
            
            
            
            
            
            
            
        </g>
        
        <g
   id="g1022"
   transform="matrix(-1,0,0,1,1492.1544,-16.153315)"><g
     transform="matrix(1.00683,-0.292946,0.297384,1.02209,-329.466,137.273)"
     id="g4"
     style="clip-rule:evenodd;fill-rule:evenodd;stroke-linecap:round;stroke-linejoin:round;stroke-miterlimit:1.5">
                <path
   d="m 827.34,1169.46 c -142.046,49.12 -276.141,-65.09 -252.54,-86.84 20.212,-18.62 42.865,17.32 67.418,34.65 33.675,23.76 83.08,50.82 179.007,31.54"
   style="fill:#3977bf"
   id="path2" />
            </g><g
     transform="translate(129.093,-9.41342)"
     id="g8"
     style="clip-rule:evenodd;fill-rule:evenodd;stroke-linecap:round;stroke-linejoin:round;stroke-miterlimit:1.5">
                <path
   d="m 467.77,1361.29 c 34.2,13.29 96.059,31.85 121.146,20.48 12.581,-5.7 11.23,-116.29 11.23,-116.29 l -65.794,16.33 c 6.061,21.98 12.047,58.23 12.047,58.23 -37.596,-2.54 -75.078,-10.77 -75.078,-10.77 z"
   style="fill:#3977bf"
   id="path6" />
            </g><path
     d="m 515.862,1231.05 c 18.989,58.26 29.749,107.18 29.749,107.18 -61.9,-6.88 -84.325,-28.63 -106.717,-32.47 -5.634,-0.97 -31.258,39.33 -25.564,58.61 2.557,8.66 21.192,25.6 40.124,28.28 0,0 -19.067,-24.71 -8.54,-44.9 0,0 107.252,48.78 143.891,32.17 12.419,-5.63 18.751,-72.15 11.61,-114.41 z"
     style="clip-rule:evenodd;fill:#549cef;fill-rule:evenodd;stroke-linecap:round;stroke-linejoin:round;stroke-miterlimit:1.5"
     id="path10" /><path
     d="m 515.862,1231.05 c 72.024,44.25 165.053,55.05 213.377,25.01 0,0 9.631,-86.93 7.509,-214.47 L 545.421,1024 c 0,0 -45.704,109.94 -29.559,207.05 z"
     style="clip-rule:evenodd;fill:#8854ef;fill-rule:evenodd;stroke-linecap:round;stroke-linejoin:round;stroke-miterlimit:1.5"
     id="path12" /><path
     d="m 690.029,1239.9 8.102,14.07 9.899,-16.6 -9.217,4.96 z m 0.003,-39.24 10.39,14.21 12.187,-16.47 -11.505,4.82 z m -0.586,-39.28 13.267,14.38 15.063,-16.3 -14.381,4.66 z m 43.509,-108.23 c -38.054,17.5 -84.918,19.88 -144.997,4.82 l 112.971,70.01 z"
     style="clip-rule:evenodd;fill:#ffc343;fill-rule:evenodd;stroke-linecap:round;stroke-linejoin:round;stroke-miterlimit:1.5"
     id="path14" /><g
     transform="rotate(-12.537347,612.69902,1048.6167)"
     id="g18"
     style="clip-rule:evenodd;fill-rule:evenodd;stroke-linecap:round;stroke-linejoin:round;stroke-miterlimit:1.5">
                <path
   d="m 875.279,1089.37 -64.751,5.01 c -6.111,0.93 -8.943,4.6 -9.532,10.15 l 1.552,87.87 55.912,4.61 c 3.4,0.42 5.801,-0.81 6.005,-5.68 z"
   style="fill:#a44343"
   id="path16" />
            </g><g
     transform="matrix(0.864011,-0.101881,0.0966785,0.819893,5.27245,287.855)"
     id="g22"
     style="clip-rule:evenodd;fill:#ffc343;fill-opacity:1;fill-rule:evenodd;stroke:#000000;stroke-linecap:round;stroke-linejoin:round;stroke-miterlimit:1.5;stroke-opacity:1">
                <path
   d="m 892.986,1116.29 15.952,3.46 -4.019,11.19 15.563,4.79 -2.904,15.73 -21.122,-16.24 4.097,-9.51 z m -19.6,-36.23 29.152,-16.24 3.88,15.22 28.276,-11.1 2.361,19.36 -39.703,4.25 -1.682,-14.17 z m -24.861,-18.22 -17.601,-16.48 10.802,-6.61 -16.431,-17.34 11.841,-11.6 17.157,32.23 -10.011,5.04 z m 14.242,-3.55 5.158,-28.96 15.601,7.42 6.999,-28.24 21.986,5.44 -23.154,38.23 -13.246,-7.55 z"
   style="fill:#ffc343;fill-opacity:1;stroke:#000000;stroke-opacity:1"
   id="path20" />
            </g><g
     transform="rotate(16.385761,896.03075,1166.98)"
     id="g26"
     style="clip-rule:evenodd;fill-rule:evenodd;stroke-linecap:round;stroke-linejoin:round;stroke-miterlimit:1.5">
                <path
   d="m 875.279,1089.37 -64.751,5.01 c -6.111,0.93 -8.943,4.6 -9.532,10.15 l 1.552,87.87 55.912,4.61 c 3.4,0.42 5.801,-0.81 6.005,-5.68 z"
   style="fill:#ec4848"
   id="path24" />
            </g><g
     transform="matrix(1.0838,0,0,1.0838,-74.416,-110.84)"
     id="g30"
     style="clip-rule:evenodd;fill-rule:evenodd;stroke-linecap:round;stroke-linejoin:round;stroke-miterlimit:1.5">
                <path
   d="m 827.34,1169.46 c -142.046,49.12 -276.141,-65.09 -252.54,-86.84 20.212,-18.62 42.865,17.32 67.418,34.65 33.675,23.76 83.08,50.82 179.007,31.54"
   style="fill:#549cef"
   id="path28" />
            </g><path
     d="m 815.631,1134.25 c 0.438,-16.8 30.698,-43.96 48.275,-20.73 21.128,27.93 -23.402,57.23 -41.648,43.1 -3.991,-6.85 -6.338,-14.26 -6.627,-22.37 z m -5.413,-303.234 c -0.381,-1.086 -10.172,-32.342 -10.172,-32.342 L 651.85,785.19 l -163.988,89.78 3.457,25.192 c 6.466,56.075 32.922,152.908 146.728,159.398 168.032,9.59 202.022,-143.526 172.171,-228.544 z"
     style="clip-rule:evenodd;fill:#ffd8bb;fill-rule:evenodd;stroke-linecap:round;stroke-linejoin:round;stroke-miterlimit:1.5"
     id="path32" /><g
     transform="matrix(-0.981142,-0.0494523,0.0604535,-1.19941,1403.62,2172.01)"
     id="g36"
     style="clip-rule:evenodd;fill-rule:evenodd;stroke-linecap:round;stroke-linejoin:round;stroke-miterlimit:1.5">
                <path
   d="m 722.752,960.164 c 2.543,-1.5 23.043,-4.085 27.218,-0.693 4.407,3.58 -14.518,15.008 -19.873,14.936 -4.233,-0.057 -12.114,-11.43 -7.345,-14.243 z"
   style="fill:#edb68d"
   id="path34" />
            </g><path
     d="m 704.791,903.123 c 0,0 31.796,50.065 3.29,60.109 -28.507,10.045 -97.66,-2.124 -96.263,-33.294 1.021,-22.799 23.965,-38.42 23.965,-38.42 z m 84.611,-15.395 -44.914,8.284 c -3.695,21.395 -6.263,52.979 8.838,60.223 23.34,11.196 36.798,2.293 42.906,-13.047 3.934,-9.879 2.726,-35.184 -6.83,-55.46 z"
     style="clip-rule:evenodd;fill:#ffffff;fill-rule:evenodd;stroke-linecap:round;stroke-linejoin:round;stroke-miterlimit:1.5"
     id="path38" /><g
     transform="matrix(1.07227,0.212719,-0.172188,0.867961,130.835,-5.51057)"
     id="g42"
     style="clip-rule:evenodd;fill-rule:evenodd;stroke-linecap:round;stroke-linejoin:round;stroke-miterlimit:1.5">
                <path
   d="m 641.619,1016.26 c 0,0 -31.369,-18.382 -13.11,-36.455 11.744,-11.626 36.895,-0.675 42.078,24.035"
   style="fill:#f48c8c"
   id="path40" />
            </g><path
     d="m 736.17,701.648 c -2.948,-8.496 -49.878,-108.732 -57.888,-109.66 -8.011,-0.927 -60.011,-10.651 -63.347,-4.251 -3.335,6.4 -57.799,165.046 -57.799,165.046 0,0 -96.841,-56.05 -113.982,-50.826 -17.141,5.223 -59.564,145.246 -59.564,145.246 l 5.58,29.827 c 11.369,-10.741 47.969,-83.331 52.678,-76.569 4.709,6.761 47.556,98.957 47.556,98.957 151.164,-96.893 259.638,-111.406 322.238,-66.613 0,0 -9.512,-127.059 -9.797,-133.536 -0.285,-6.476 55.94,-16.047 67.628,-8.342 7.818,5.154 41.498,70.209 46.585,75.562 5.087,5.352 22.588,-9.375 22.588,-9.375 0,0 -41.324,-114.898 -50.188,-115.959 -8.864,-1.061 -124.535,-26.887 -132.159,-16.056 -8.021,11.395 -20.129,76.549 -20.129,76.549 z"
     style="clip-rule:evenodd;fill:#8854ef;fill-rule:evenodd;stroke-linecap:round;stroke-linejoin:round;stroke-miterlimit:1.5"
     id="path44" /><path
     d="m 1074.61,1208.4 c 0.92,-1.95 12.11,-2.17 13.08,-0.25 11.07,21.91 41.04,80.05 42.69,80.71 2.01,0.81 -87.52,171.34 -98.65,177.53 -7.78,4.32 -221.512,-16.25 -221.512,-16.25 0,0 43.352,-92.29 49.61,-99.32 2.302,-2.58 136.912,2.84 143.452,3.93 5.43,0.9 71.16,-145.99 71.33,-146.35 z"
     style="clip-rule:evenodd;fill:#7c98aa;fill-rule:evenodd;stroke-linecap:round;stroke-linejoin:round;stroke-miterlimit:1.5"
     id="path46" /><path
     d="m 1074,1209.76 40.67,79.77 c -27.94,54.92 -51.9,104.01 -87.94,163.91 -12.18,4.11 -183.451,-9.69 -212.377,-12.06 10.985,-23.2 40.405,-84.87 45.475,-90.56 2.302,-2.58 136.912,2.84 143.452,3.93 5.12,0.85 64.08,-130.2 70.72,-144.99 z"
     style="clip-rule:evenodd;fill:#9db7c8;fill-rule:evenodd;stroke-linecap:round;stroke-linejoin:round;stroke-miterlimit:1.5"
     id="path48" /><path
     d="m 1074.35,1210.44 40.32,79.09 c -27.49,54.02 -51.11,102.41 -86.18,160.99 l -26.45,-95.91 c 0.58,0.06 1,0.1 1.24,0.14 4.6,0.77 52.65,-104.93 67.19,-137.14 z"
     style="clip-rule:evenodd;fill:#91aabb;fill-rule:evenodd;stroke-linecap:round;stroke-linejoin:round;stroke-miterlimit:1.5"
     id="path50" /><g
     transform="matrix(1.0118,0,0,1.1267,1.46173,-204.731)"
     id="g54"
     style="clip-rule:evenodd;fill-rule:evenodd;stroke-linecap:round;stroke-linejoin:round;stroke-miterlimit:1.5">
                <path
   d="m 586.242,1459.65 2.544,-67 42.604,-14.91 c 0,0 87.922,14.64 92.217,14.91 l -3.531,62.4 -40.126,22.93 z"
   style="fill:#ee5757"
   id="path52" />
            </g><path
     d="m 733.534,1364.36 c 0.027,0.01 0.051,0.01 0.074,0.01 l -3.573,70.31 -40.599,25.83 -94.814,-20.65 2.512,-73.67 93.781,19.69 z"
     style="clip-rule:evenodd;fill:#c23636;fill-rule:evenodd;stroke-linecap:round;stroke-linejoin:round;stroke-miterlimit:1.5"
     id="path56" /><path
     d="m 695.997,1383.18 -6.747,77.28 -94.628,-20.6 2.574,-75.49 z"
     style="clip-rule:evenodd;fill:#ec4848;fill-rule:evenodd;stroke-linecap:round;stroke-linejoin:round;stroke-miterlimit:1.5"
     id="path58" /><path
     d="m 633.467,1404.19 0.984,-10.51 17.243,3.46 -1.224,10.22 9.816,1.83 -1.954,13.36 -9.42,-2.18 -0.932,7.78 -16.4,-3.82 0.73,-7.8 -9.321,-2.15 0.45,-12.06 z"
     style="clip-rule:evenodd;fill:#ffffff;fill-rule:evenodd;stroke-linecap:round;stroke-linejoin:round;stroke-miterlimit:1.5"
     id="path60" /><path
     d="m 448.698,1386.68 c 2.723,-2.3 6.063,-1.2 8.054,1.13 1.992,2.33 2.634,5.89 -0.04,8.48 -6.54,6.35 -15.227,-3.51 -8.014,-9.61 z m 31.135,-507.763 c 0,0 -7.68,12.162 9.571,20.501 0,0 200.947,-144.668 322.238,-66.613 0,0 13.969,-14.511 -1.765,-23.631 0,0 -110.83,-88.303 -330.044,69.743 z m -93.504,-40.366 c -13.459,2.927 -39.412,33.844 -4.41,47.885 35.763,14.346 35.234,-23.474 27.355,-38.292 -7.252,-13.64 -9.486,-12.519 -22.945,-9.593 z m 524.296,-83.275 c -8.307,11.572 -4.662,51.793 33.784,37.038 39.284,-15.077 9.446,-41.498 -8.279,-46.436 -16.314,-4.545 -17.198,-2.174 -25.505,9.398 z M 673.193,689.549 c -10.784,8.568 -22.582,42.681 15.128,42.329 38.532,-0.361 22.129,-37.035 11.691,-44.161 -10.729,-7.327 -16.928,-6.026 -26.819,1.832 z"
     style="clip-rule:evenodd;fill:#ffc343;fill-rule:evenodd;stroke-linecap:round;stroke-linejoin:round;stroke-miterlimit:1.5"
     id="path62" /><path
     d="m 1010.37,1358.9 c 27.69,-50.97 43.2,-88.44 62.5,-133.29 l 31.77,67 -73.03,141.53 z"
     style="clip-rule:evenodd;fill:#0088ff;fill-rule:evenodd;stroke-linecap:round;stroke-linejoin:round;stroke-miterlimit:1.5"
     id="path64" /><path
     d="m 1030.89,1331.98 22.53,47.76 -2.2,3.72 -22.27,-48.53 z m 4.14,-8.15 22.48,50.15 4.66,-6.53 -23.84,-50.37 z m 21.61,-0.12 c 0,0 -6.87,-19.16 11.18,-21.17 l 2.23,-3.07 c 0,0 -25.04,-1.85 -15.08,27.12 z m -12.61,-13.07 2.76,2.12 1.77,-2.79 -2.02,-2.66 z m 11.28,-15.12 2.49,2.35 2.56,-2.44 -2.67,-3 z"
     style="clip-rule:evenodd;fill:#ffffff;fill-rule:evenodd;stroke-linecap:round;stroke-linejoin:round;stroke-miterlimit:1.5"
     id="path66" /><g
     id="lighting">
            <path
   d="m 554.691,873.058 c -13.865,44.097 5.732,177.502 138.081,183.252 0,0 -25.332,44.97 -101.088,19.31 0,0 -26.888,-6.86 -34.8,5.09 13.973,23.06 44.432,60.83 87.351,95.37 0,0 -66.45,-10.71 -83.556,-50.41 -4.361,27.55 -16.816,76.81 -1.725,149.92 9.663,46.81 4.204,69.6 -13.401,62.37 -0.869,-3.9 -11.507,-51.12 -29.691,-106.91 l -0.186,-1.14 C 500.072,1133.09 545.421,1024 545.421,1024 l 1.156,0.11 C 507.918,989.207 495.48,936.246 491.319,900.162 l -0.249,-1.81 -1.666,1.066 -0.4,-0.197 c -16.693,-8.312 -9.206,-20.249 -9.171,-20.304 -12.918,-27.579 -34.705,-73.746 -37.985,-78.456 -2.992,-4.296 -18.855,23.435 -32.945,46.99 0.123,0.228 0.247,0.458 0.371,0.693 0.429,0.806 0.836,1.68 1.215,2.608 l -5.735,-6.926 c 0,0 18.305,-58.336 41.132,-76.527 0,0 51.363,53.586 74.641,81.505 0,0 4.144,17.623 17.029,21.046 174.464,-101.933 271.39,-37.551 271.39,-37.551 -110.652,-40.944 -215.793,17.677 -254.255,40.759 z m 88.489,138.982 c 0,0 -14.904,-12.925 -6.566,-18.129 8.338,-5.204 24.154,2.979 29.428,12.819 z M 803.023,697.495 c 2.843,-5.015 2.631,-22.853 9.741,-25.934 8.966,-3.886 65.158,0.156 69.048,6.064 13.859,21.048 23.766,58.092 27.858,78.546 l 0.095,0.481 c -11.556,-19.745 -34.082,-61.631 -40.292,-65.725 -10.656,-7.024 -58.331,0.311 -66.45,6.568 z m -107.896,33.996 c -14.979,2.43 -26.86,-1.136 -31.558,-11.299 -4.698,-10.163 4.574,-25.228 4.574,-25.228 l -31.221,-41.344 23.773,63.852 c 0,0 -8.252,26.633 15.478,28.135 18.619,1.179 19.201,-14.156 18.954,-14.116 z"
   style="fill-opacity:0.2"
   id="path69" />
        </g><g
     id="line">
            <g
   transform="matrix(0.997695,0.0678524,-0.0602749,0.886276,60.0283,58.4532)"
   id="g74">
                <path
   d="m 687.601,879.122 c 9.143,6.099 15.256,11.636 17.968,15.629 0.581,0.857 0.985,1.618 1.187,2.285 0.076,0.254 0.216,0.461 0.052,0.576 -0.292,0.206 -0.723,0.272 -1.269,0.313 -1.148,0.086 -2.669,-0.107 -4.58,-0.564 -7.227,-1.696 -14.57,-3.145 -21.935,-4.302 -4.913,-0.771 -9.834,-1.42 -14.731,-1.956 -12.679,-1.387 -25.188,-2.077 -36.976,-2.354 -41.399,-0.974 -73.89,3.284 -73.89,3.284 -0.481,0.055 -0.831,0.54 -0.782,1.082 0.05,0.541 0.48,0.936 0.961,0.88 0,0 32.417,-3.256 73.608,-1.411 11.697,0.524 24.1,1.473 36.678,2.97 4.847,0.577 9.72,1.227 14.59,1.962 7.289,1.101 14.573,2.379 21.738,3.958 3.507,0.757 5.983,0.685 7.47,0.099 1.225,-0.484 1.984,-1.287 2.375,-2.259 0.47,-1.165 0.467,-2.731 -0.386,-4.576 -1.944,-4.203 -9.003,-10.995 -20.715,-18.294 -0.657,-0.424 -1.495,-0.168 -1.871,0.572 -0.377,0.739 -0.149,1.683 0.508,2.106 z"
   id="path72" />
            </g>
            <g
   transform="matrix(0.913328,0.407224,-0.361747,0.811331,391.141,-113.656)"
   id="g78">
                <path
   d="m 716.622,867.725 c -1.587,4.865 -0.759,9.246 1.144,12.297 2.509,4.022 6.939,5.701 10.89,3.729 4.383,-2.242 9.005,-5.326 13.799,-9.026 2.774,-2.142 5.609,-4.488 8.497,-6.978 9.611,-8.286 19.91,-18.051 31.023,-26.717 7.632,-5.952 15.613,-11.433 24.006,-15.574 0.446,-0.209 0.658,-0.787 0.472,-1.29 -0.185,-0.502 -0.699,-0.741 -1.145,-0.532 -8.661,3.836 -16.974,9.005 -24.902,14.753 -11.414,8.276 -22.066,17.654 -31.836,25.801 -2.879,2.401 -5.673,4.706 -8.387,6.845 -4.573,3.602 -8.906,6.745 -13.072,9.002 -2.386,1.324 -5.093,0.22 -6.736,-2.176 -1.511,-2.204 -2.179,-5.447 -1.156,-9.142 0.243,-0.807 -0.141,-1.684 -0.858,-1.958 -0.717,-0.273 -1.496,0.159 -1.739,0.966 z"
   id="path76" />
            </g>
            <g
   transform="matrix(0.997695,0.0678524,-0.0602749,0.886276,60.0283,58.4532)"
   id="g82">
                <path
   d="m 720.105,891.695 c -0.264,-0.75 -0.456,-1.447 -0.705,-2.141 -0.176,-0.491 -0.357,-0.956 -0.561,-1.411 -0.271,-0.605 -0.56,-1.185 -0.894,-1.726 -0.354,-0.574 -0.75,-1.103 -1.187,-1.603 -1.545,-1.764 -3.392,-3.222 -6.268,-4.366 -0.428,-0.253 -0.959,-0.068 -1.184,0.414 -0.225,0.481 -0.061,1.078 0.367,1.332 1.178,0.989 2.013,1.982 2.758,2.972 0.586,0.778 1.009,1.574 1.453,2.365 0.311,0.554 0.583,1.124 0.901,1.675 0.328,0.571 0.679,1.129 1.064,1.686 0.584,0.843 1.235,1.609 1.95,2.474 0.409,0.716 1.259,0.923 1.895,0.463 0.636,-0.461 0.821,-1.417 0.411,-2.134 z"
   id="path80" />
            </g>
            <g
   transform="matrix(1.10047,-0.032741,0.0297387,0.999558,-94.1877,15.6368)"
   id="g86">
                <path
   d="m 738.764,1023.04 c 0,0 -17.392,-4.66 -38.346,-7.65 -4.209,-0.6 -8.561,-1.13 -12.945,-1.52 -4.348,-0.39 -8.728,-0.64 -13.026,-0.73 -7.745,-0.16 -15.235,0.16 -21.806,1.35 -8.901,1.6 -16.121,4.75 -20.235,9.67 -0.423,0.49 -0.409,1.26 0.03,1.72 0.44,0.47 1.14,0.45 1.563,-0.03 3.12,-3.4 8,-5.52 13.917,-6.91 4.705,-1.1 10.064,-1.72 15.78,-1.96 5.738,-0.25 11.827,-0.13 17.958,0.22 4.007,0.23 8.031,0.55 11.987,0.93 23.609,2.22 44.739,6.83 44.739,6.83 0.48,0.11 0.955,-0.22 1.061,-0.75 0.106,-0.53 -0.197,-1.05 -0.677,-1.17 z"
   id="path84" />
            </g>
            <g
   transform="rotate(-10.340289,412.18537,874.52117)"
   id="g90">
                <path
   d="m 384.892,867.402 c -0.021,0.829 -0.029,1.658 -0.028,2.473 0.011,5.806 0.485,10.924 0.485,10.924 0.047,0.385 -0.227,0.736 -0.613,0.784 -0.385,0.047 -0.736,-0.228 -0.784,-0.613 0,0 -0.785,-5.16 -1.062,-11.047 -0.181,-3.844 -0.139,-7.99 0.436,-11.231 0.292,-1.643 0.734,-3.064 1.323,-4.133 0.669,-1.214 1.553,-2.009 2.591,-2.344 1.024,-0.33 2.253,-0.237 3.692,0.543 4.448,2.443 4.913,5.014 3.914,7.218 -0.595,1.312 -1.838,2.572 -3.292,3.677 -2.017,1.532 -4.424,2.788 -5.495,3.642 -0.34,0.279 -0.804,0.307 -1.167,0.107 z m 0.069,-1.902 c 0.972,-0.757 2.71,-1.79 4.36,-2.997 1.427,-1.045 2.81,-2.21 3.358,-3.484 0.584,-1.358 -0.186,-2.624 -2.926,-4.072 -0.689,-0.369 -1.257,-0.509 -1.745,-0.351 -0.537,0.173 -0.917,0.667 -1.261,1.313 -0.455,0.856 -0.795,1.968 -1.061,3.239 -0.393,1.879 -0.614,4.083 -0.725,6.352 z"
   id="path88" />
            </g>
            <g
   transform="matrix(0.934721,0.355382,-0.322888,0.849256,610.374,-156.13)"
   id="g94">
                <path
   d="m 384.881,867.487 c -0.017,0.747 -0.024,1.493 -0.024,2.228 0.005,5.862 0.491,11.066 0.491,11.066 0.052,0.423 -0.218,0.814 -0.603,0.871 -0.385,0.057 -0.74,-0.241 -0.792,-0.664 0,0 -1.001,-6.658 -1.138,-13.483 -0.064,-3.252 0.077,-6.539 0.584,-9.182 0.328,-1.704 0.824,-3.152 1.478,-4.209 0.705,-1.138 1.61,-1.857 2.683,-2.108 0.941,-0.22 2.049,-0.078 3.33,0.616 4.619,2.541 4.982,5.278 3.889,7.558 -0.628,1.31 -1.894,2.572 -3.359,3.671 -1.996,1.496 -4.345,2.72 -5.4,3.558 -0.342,0.281 -0.79,0.296 -1.139,0.078 z m 0.074,-2.068 c 1.112,-0.877 3.293,-2.137 5.16,-3.617 1.099,-0.872 2.094,-1.806 2.554,-2.818 0.302,-0.662 0.234,-1.348 -0.355,-2.052 -0.519,-0.62 -1.342,-1.226 -2.519,-1.849 -0.666,-0.357 -1.228,-0.499 -1.717,-0.386 -0.475,0.11 -0.841,0.476 -1.16,0.974 -0.517,0.809 -0.892,1.93 -1.184,3.239 -0.425,1.902 -0.661,4.169 -0.779,6.509 z"
   id="path92" />
            </g>
            <g
   transform="matrix(-1.15648,0.551346,0.371955,0.780198,1064.54,-110.132)"
   id="g98">
                <path
   d="m 384.639,866.932 c 0.013,0.048 0.028,0.095 0.045,0.141 0.218,0.583 0.714,0.795 1.107,0.472 1.005,-0.798 3.194,-1.94 5.123,-3.343 1.412,-1.026 2.68,-2.215 3.38,-3.448 0.457,-0.805 0.694,-1.659 0.714,-2.51 0.023,-0.967 -0.228,-1.991 -0.94,-2.998 -0.635,-0.898 -1.716,-1.836 -3.392,-2.754 -1.667,-0.889 -3.002,-0.805 -4.058,-0.099 -1.186,0.794 -2.064,2.396 -2.629,4.553 -0.699,2.667 -0.948,6.218 -0.932,9.794 0.032,7.108 1.053,14.29 1.053,14.29 0.055,0.442 0.341,0.736 0.639,0.655 0.298,-0.08 0.496,-0.504 0.442,-0.946 0,0 -0.726,-6.961 -0.552,-13.807 z m 0.032,-0.993 c 0.067,-1.731 0.198,-3.432 0.418,-4.988 0.379,-2.679 0.978,-4.926 2.166,-5.841 0.706,-0.544 1.605,-0.523 2.754,0.103 1.163,0.617 1.987,1.22 2.527,1.833 0.36,0.408 0.589,0.729 0.585,1.125 -0.003,0.285 -0.117,0.55 -0.266,0.824 -0.558,1.024 -1.608,1.965 -2.747,2.845 -1.924,1.486 -4.106,2.745 -5.106,3.592 -0.147,0.121 -0.26,0.3 -0.331,0.507 z"
   id="path96" />
            </g>
            <g
   transform="matrix(0.99621,-0.0579695,0.0812034,0.886978,-65.2252,158.817)"
   id="g102">
                <path
   d="m 674.106,932.887 c 2.268,15.35 28.351,18.493 22.859,0.112 -6.13,-20.516 -24.322,-10.021 -22.859,-0.112 z"
   style="fill:none;stroke:#000000;stroke-width:6.24px"
   id="path100" />
            </g>
            <g
   transform="matrix(-0.672576,-0.132095,-0.149511,0.646977,1364.86,430.499)"
   id="g106">
                <path
   d="m 674.106,932.887 c 2.268,15.35 28.351,18.493 22.859,0.112 -6.13,-20.516 -24.322,-10.021 -22.859,-0.112 z"
   style="fill:none;stroke:#000000;stroke-width:8.75px"
   id="path104" />
            </g>
            <g
   transform="matrix(1.19375,0,0,0.92193,-164.25,112.647)"
   id="g110">
                <path
   d="m 733.035,1413.24 v -9.47 l 8.617,15.51 3.988,-16.52 7.145,14.04 3.024,-16.55 7.957,12.99 1.314,-15.2 8.486,8.97 -0.585,-14.39 9.972,8.49 -0.588,-14.17 11.836,7.97 -5.789,-13.87 13.028,7.78 -7.239,-14.9 16.017,5.92 -8.61,-13.33 12.659,2.52 -8.234,-10.79 13.895,0.69 -9.71,-10.2 16.372,-2.51 -10.529,-7.94 13.949,-3.02 -10.082,-7.3 15.264,-4.75 -8.49,-7.15 13.617,-2.02 -11.683,-8.24 14.706,-5.59 -11.99,-6.86 14.227,-4.54 -9.209,-8.94 12.726,-3.15 -10.544,-8.51 12.231,-5.93 -9.699,-4.65 14.282,-6.99 -12.401,-5.74 13.182,-5.55 -12.282,-5.43 12.38,-4.05 -10.57,-6.54 10.903,-3.26 -10.944,-5.67 12.929,-6.05 -13.548,-3.85 14.429,-6.33 -14.598,-5.77 14.714,-3.69 -13.081,-5.3 12.48,-4.19 -11.144,-5.76 10.143,-2.75 -11.269,-6.09 6.327,-5.33"
   style="fill:none;stroke:#000000;stroke-width:3.75px"
   id="path108" />
            </g>
            <path
   d="m 702.007,684.958 c -0.843,-9.61 -2.25,-21.984 -3.751,-33.457 -0.612,-4.675 -1.239,-9.197 -1.845,-13.323 -1.69,-11.516 -3.116,-19.934 -3.116,-19.934 -0.058,-0.434 -0.458,-0.74 -0.892,-0.682 -0.434,0.058 -0.74,0.457 -0.682,0.892 0,0 0.976,10.161 2.29,23.4 0.72,7.26 1.575,15.437 2.32,23.38 0.672,7.158 1.293,14.118 1.687,20.029 0.085,1.101 1.047,1.926 2.147,1.842 1.101,-0.085 1.926,-1.047 1.842,-2.147 z"
   id="path112" />
            <path
   d="m 668.07,691.459 c -6.418,-7.2 -14.55,-17.902 -22.041,-28.191 -2.935,-4.033 -5.772,-8 -8.369,-11.674 -5.847,-8.274 -10.434,-15.062 -11.9,-17.862 -0.193,-0.394 -0.668,-0.557 -1.062,-0.364 -0.393,0.193 -0.557,0.668 -0.364,1.062 1.329,2.909 5.507,10.073 11.044,18.701 2.441,3.805 5.153,7.887 7.987,12.019 7.277,10.608 15.356,21.532 21.693,28.94 0.726,0.831 1.99,0.917 2.822,0.191 0.831,-0.726 0.917,-1.991 0.19,-2.822 z"
   id="path114" />
            <g
   transform="matrix(1,0,0,0.84618,0,137.134)"
   id="g118">
                <path
   d="m 493.885,898.734 c 0,0 11.478,-9.635 30.627,-23.034 6.249,-4.374 13.306,-9.166 21.052,-14.153 24.577,-15.826 56.08,-33.652 90.586,-46.345 13.322,-4.901 27.088,-9.046 41.062,-12.03 18.512,-3.953 37.388,-5.832 56.074,-4.864 8.034,0.416 16.029,1.395 23.958,2.912 17.407,3.328 34.488,9.424 50.755,19.358 0.486,0.304 1.09,0.084 1.347,-0.491 0.258,-0.575 0.071,-1.289 -0.415,-1.593 -16.35,-10.439 -33.558,-17.19 -51.196,-20.757 -8.038,-1.625 -16.166,-2.55 -24.322,-2.948 -18.899,-0.922 -37.975,1.178 -56.686,5.232 -14.075,3.05 -27.944,7.225 -41.375,12.142 -34.718,12.709 -66.528,30.311 -91.229,46.264 -7.778,5.024 -14.853,9.88 -21.088,14.366 -19.125,13.762 -30.439,23.862 -30.439,23.862 -0.485,0.421 -0.591,1.228 -0.235,1.801 0.355,0.574 1.038,0.698 1.524,0.278 z"
   id="path116" />
            </g>
            <g
   transform="translate(-2.85037,0.220141)"
   id="g122">
                <path
   d="m 996.821,1362.15 16.549,79.74 -100.952,-4.38 2.425,-78.78 z"
   style="fill:none;stroke:#000000;stroke-width:2px"
   id="path120" />
            </g>
            <path
   d="m 869.077,1373.98 h 29.979 l -2.704,37.99 -37.317,-3.45 z"
   style="fill:none;stroke:#000000;stroke-width:2px"
   id="path124" />
            <path
   d="m 879.045,1373.98 -8.232,35.63"
   style="fill:none;stroke:#000000;stroke-width:2px"
   id="path126" />
            <path
   d="m 864.622,1389.3 10.307,0.15"
   style="fill:none;stroke:#000000;stroke-width:2px"
   id="path128" />
            <g
   transform="translate(-2.85037,0.220141)"
   id="g132">
                <path
   d="m 928.805,1360.47 0.704,76.68"
   style="fill:none;stroke:#000000;stroke-width:2px"
   id="path130" />
            </g>
            <g
   transform="translate(28.549,0.729325)"
   id="g136">
                <path
   d="m 925.804,1360.46 5.689,77.93"
   style="fill:none;stroke:#000000;stroke-width:2px"
   id="path134" />
            </g>
            <g
   transform="matrix(1,0,0,0.993582,12.8493,9.46178)"
   id="g140">
                <path
   d="m 927.78,1360.46 3.238,78.44"
   style="fill:none;stroke:#000000;stroke-width:2.01px"
   id="path138" />
            </g>
            <g
   transform="matrix(1,0,0,0.993582,44.2486,9.97096)"
   id="g144">
                <path
   d="m 923.456,1360.65 9.021,78.75"
   style="fill:none;stroke:#000000;stroke-width:2.01px"
   id="path142" />
            </g>
            <g
   transform="matrix(1,0,0,0.993582,56.9453,12.3041)"
   id="g148">
                <path
   d="m 923.947,1358.3 11.42,78.75"
   style="fill:none;stroke:#000000;stroke-width:2.01px"
   id="path146" />
            </g>
            <path
   d="m 911.993,1372.77 84.721,2.82"
   style="fill:none;stroke:#000000;stroke-width:2px"
   id="path150" />
            <path
   d="m 910.361,1421.29 95.909,3.73"
   style="fill:none;stroke:#000000;stroke-width:2px"
   id="path152" />
            <path
   d="m 926.659,1388.45 c 1.975,-0.76 72.569,2.56 72.569,2.56"
   style="fill:none;stroke:#000000;stroke-width:2px"
   id="path154" />
            <path
   d="m 926.659,1405.11 76.091,2.07"
   style="fill:none;stroke:#000000;stroke-width:2px"
   id="path156" />
        </g></g>
    </g>
</svg>
