<?xml version="1.0" encoding="UTF-8" standalone="no"?>
<svg
   xmlns:dc="http://purl.org/dc/elements/1.1/"
   xmlns:cc="http://creativecommons.org/ns#"
   xmlns:rdf="http://www.w3.org/1999/02/22-rdf-syntax-ns#"
   xmlns:svg="http://www.w3.org/2000/svg"
   xmlns="http://www.w3.org/2000/svg"
   xmlns:sodipodi="http://sodipodi.sourceforge.net/DTD/sodipodi-0.dtd"
   xmlns:inkscape="http://www.inkscape.org/namespaces/inkscape"
   width="100%"
   height="100%"
   viewBox="0 0 799 920"
   version="1.1"
   xml:space="preserve"
   style="fill-rule:evenodd;clip-rule:evenodd;stroke-linecap:round;stroke-linejoin:round;stroke-miterlimit:1.5;"
   id="svg161"
   sodipodi:docname="jester_bluescreen.svg"
   inkscape:version="1.0.1 (3bc2e813f5, 2020-09-07)"><metadata
   id="metadata167"><rdf:RDF><cc:Work
       rdf:about=""><dc:format>image/svg+xml</dc:format><dc:type
         rdf:resource="http://purl.org/dc/dcmitype/StillImage" /></cc:Work></rdf:RDF></metadata><defs
   id="defs165" /><sodipodi:namedview
   pagecolor="#ffffff"
   bordercolor="#666666"
   borderopacity="1"
   objecttolerance="10"
   gridtolerance="10"
   guidetolerance="10"
   inkscape:pageopacity="0"
   inkscape:pageshadow="2"
   inkscape:window-width="1956"
   inkscape:window-height="946"
   id="namedview163"
   showgrid="false"
   inkscape:zoom="0.69093801"
   inkscape:cx="284.73924"
   inkscape:cy="381.79347"
   inkscape:window-x="26"
   inkscape:window-y="23"
   inkscape:window-maximized="0"
   inkscape:current-layer="colour" />
    <g
   transform="matrix(1,0,0,1,-352,-566)"
   id="g159">
        <g
   id="colour">
            <g
   transform="matrix(1.00683,-0.292946,0.297384,1.02209,-329.466,137.273)"
   id="g4">
                <path
   d="M827.34,1169.46C685.294,1218.58 551.199,1104.37 574.8,1082.62C595.012,1064 617.665,1099.94 642.218,1117.27C675.893,1141.03 725.298,1168.09 821.225,1148.81"
   style="fill:rgb(57,119,191);"
   id="path2" />
            </g>
            <g
   transform="matrix(1,0,0,1,129.093,-9.41342)"
   id="g8">
                <path
   d="M467.77,1361.29C501.97,1374.58 563.829,1393.14 588.916,1381.77C601.497,1376.07 600.146,1265.48 600.146,1265.48L534.352,1281.81C540.413,1303.79 546.399,1340.04 546.399,1340.04C508.803,1337.5 471.321,1329.27 471.321,1329.27L467.77,1361.29Z"
   style="fill:rgb(57,119,191);"
   id="path6" />
            </g>
            <path
   d="M515.862,1231.05C534.851,1289.31 545.611,1338.23 545.611,1338.23C483.711,1331.35 461.286,1309.6 438.894,1305.76C433.26,1304.79 407.636,1345.09 413.33,1364.37C415.887,1373.03 434.522,1389.97 453.454,1392.65C453.454,1392.65 434.387,1367.94 444.914,1347.75C444.914,1347.75 552.166,1396.53 588.805,1379.92C601.224,1374.29 607.556,1307.77 600.415,1265.51L515.862,1231.05Z"
   style="fill:rgb(84,156,239);"
   id="path10" />
            <path
   d="M515.862,1231.05C587.886,1275.3 680.915,1286.1 729.239,1256.06C729.239,1256.06 738.87,1169.13 736.748,1041.59L545.421,1024C545.421,1024 499.717,1133.94 515.862,1231.05Z"
   style="fill:rgb(136,84,239);"
   id="path12" />
            <path
   d="M690.029,1239.9L698.131,1253.97L708.03,1237.37L698.813,1242.33L690.029,1239.9ZM690.032,1200.66L700.422,1214.87L712.609,1198.4L701.104,1203.22L690.032,1200.66ZM689.446,1161.38L702.713,1175.76L717.776,1159.46L703.395,1164.12L689.446,1161.38ZM732.955,1053.15C694.901,1070.65 648.037,1073.03 587.958,1057.97L700.929,1127.98L732.955,1053.15Z"
   style="fill:rgb(255,195,67);"
   id="path14" />
            <g
   transform="matrix(0.976155,-0.217076,0.217076,0.976155,-213.019,158.006)"
   id="g18">
                <path
   d="M875.279,1089.37L810.528,1094.38C804.417,1095.31 801.585,1098.98 800.996,1104.53L802.548,1192.4L858.46,1197.01C861.86,1197.43 864.261,1196.2 864.465,1191.33L875.279,1089.37Z"
   style="fill:rgb(164,67,67);"
   id="path16" />
            </g>
            <g
   transform="matrix(0.864011,-0.101881,0.0966785,0.819893,5.27245,287.855)"
   id="g22"
   style="fill:#ffc343;fill-opacity:1;stroke:#000000;stroke-opacity:1">
                <path
   d="M892.986,1116.29L908.938,1119.75L904.919,1130.94L920.482,1135.73L917.578,1151.46L896.456,1135.22L900.553,1125.71L892.986,1116.29ZM873.386,1080.06L902.538,1063.82L906.418,1079.04L934.694,1067.94L937.055,1087.3L897.352,1091.55L895.67,1077.38L873.386,1080.06ZM848.525,1061.84L830.924,1045.36L841.726,1038.75L825.295,1021.41L837.136,1009.81L854.293,1042.04L844.282,1047.08L848.525,1061.84ZM862.767,1058.29L867.925,1029.33L883.526,1036.75L890.525,1008.51L912.511,1013.95L889.357,1052.18L876.111,1044.63L862.767,1058.29Z"
   style="fill:#ffc343;fill-opacity:1;stroke:#000000;stroke-opacity:1"
   id="path20" />
            </g>
            <g
   transform="matrix(0.959384,0.282103,-0.282103,0.959384,365.602,-205.375)"
   id="g26">
                <path
   d="M875.279,1089.37L810.528,1094.38C804.417,1095.31 801.585,1098.98 800.996,1104.53L802.548,1192.4L858.46,1197.01C861.86,1197.43 864.261,1196.2 864.465,1191.33L875.279,1089.37Z"
   style="fill:rgb(236,72,72);"
   id="path24" />
            </g>
            <g
   transform="matrix(1.0838,0,0,1.0838,-74.416,-110.84)"
   id="g30">
                <path
   d="M827.34,1169.46C685.294,1218.58 551.199,1104.37 574.8,1082.62C595.012,1064 617.665,1099.94 642.218,1117.27C675.893,1141.03 725.298,1168.09 821.225,1148.81"
   style="fill:rgb(84,156,239);"
   id="path28" />
            </g>
            <path
   d="M815.631,1134.25C816.069,1117.45 846.329,1090.29 863.906,1113.52C885.034,1141.45 840.504,1170.75 822.258,1156.62C818.267,1149.77 815.92,1142.36 815.631,1134.25ZM810.218,831.016C809.837,829.93 800.046,798.674 800.046,798.674L651.85,785.19L487.862,874.97L491.319,900.162C497.785,956.237 524.241,1053.07 638.047,1059.56C806.079,1069.15 840.069,916.034 810.218,831.016Z"
   style="fill:rgb(255,216,187);"
   id="path32" />
            <g
   transform="matrix(-0.981142,-0.0494523,0.0604535,-1.19941,1403.62,2172.01)"
   id="g36">
                <path
   d="M722.752,960.164C725.295,958.664 745.795,956.079 749.97,959.471C754.377,963.051 735.452,974.479 730.097,974.407C725.864,974.35 717.983,962.977 722.752,960.164Z"
   style="fill:rgb(237,182,141);"
   id="path34" />
            </g>
            <path
   d="M704.791,903.123C704.791,903.123 736.587,953.188 708.081,963.232C679.574,973.277 610.421,961.108 611.818,929.938C612.839,907.139 635.783,891.518 635.783,891.518L704.791,903.123ZM789.402,887.728L744.488,896.012C740.793,917.407 738.225,948.991 753.326,956.235C776.666,967.431 790.124,958.528 796.232,943.188C800.166,933.309 798.958,908.004 789.402,887.728Z"
   style="fill:white;"
   id="path38" />
            <g
   transform="matrix(1.07227,0.212719,-0.172188,0.867961,130.835,-5.51057)"
   id="g42">
                <path
   d="M641.619,1016.26C641.619,1016.26 610.25,997.878 628.509,979.805C640.253,968.179 665.404,979.13 670.587,1003.84"
   style="fill:rgb(244,140,140);"
   id="path40" />
            </g>
            <path
   d="M736.17,701.648C733.222,693.152 686.292,592.916 678.282,591.988C670.271,591.061 618.271,581.337 614.935,587.737C611.6,594.137 557.136,752.783 557.136,752.783C557.136,752.783 460.295,696.733 443.154,701.957C426.013,707.18 383.59,847.203 383.59,847.203L389.17,877.03C400.539,866.289 437.139,793.699 441.848,800.461C446.557,807.222 489.404,899.418 489.404,899.418C640.568,802.525 749.042,788.012 811.642,832.805C811.642,832.805 802.13,705.746 801.845,699.269C801.56,692.793 857.785,683.222 869.473,690.927C877.291,696.081 910.971,761.136 916.058,766.489C921.145,771.841 938.646,757.114 938.646,757.114C938.646,757.114 897.322,642.216 888.458,641.155C879.594,640.094 763.923,614.268 756.299,625.099C748.278,636.494 736.17,701.648 736.17,701.648Z"
   style="fill:rgb(136,84,239);"
   id="path44" />
            <path
   d="M1074.61,1208.4C1075.53,1206.45 1086.72,1206.23 1087.69,1208.15C1098.76,1230.06 1128.73,1288.2 1130.38,1288.86C1132.39,1289.67 1042.86,1460.2 1031.73,1466.39C1023.95,1470.71 810.218,1450.14 810.218,1450.14C810.218,1450.14 853.57,1357.85 859.828,1350.82C862.13,1348.24 996.74,1353.66 1003.28,1354.75C1008.71,1355.65 1074.44,1208.76 1074.61,1208.4Z"
   style="fill:rgb(124,152,170);"
   id="path46" />
            <path
   d="M1074,1209.76L1114.67,1289.53C1086.73,1344.45 1062.77,1393.54 1026.73,1453.44C1014.55,1457.55 843.279,1443.75 814.353,1441.38C825.338,1418.18 854.758,1356.51 859.828,1350.82C862.13,1348.24 996.74,1353.66 1003.28,1354.75C1008.4,1355.6 1067.36,1224.55 1074,1209.76Z"
   style="fill:rgb(157,183,200);"
   id="path48" />
            <path
   d="M1074.35,1210.44L1114.67,1289.53C1087.18,1343.55 1063.56,1391.94 1028.49,1450.52L1002.04,1354.61C1002.62,1354.67 1003.04,1354.71 1003.28,1354.75C1007.88,1355.52 1055.93,1249.82 1070.47,1217.61L1074.35,1210.44Z"
   style="fill:rgb(145,170,187);"
   id="path50" />
            <g
   transform="matrix(1.0118,0,0,1.1267,1.46173,-204.731)"
   id="g54">
                <path
   d="M586.242,1459.65L588.786,1392.65L631.39,1377.74C631.39,1377.74 719.312,1392.38 723.607,1392.65L720.076,1455.05L679.95,1477.98L586.242,1459.65Z"
   style="fill:rgb(238,87,87);"
   id="path52" />
            </g>
            <path
   d="M733.534,1364.36C733.561,1364.37 733.585,1364.37 733.608,1364.37L730.035,1434.68L689.436,1460.51L594.622,1439.86L597.134,1366.19L690.915,1385.88L733.534,1364.36Z"
   style="fill:rgb(194,54,54);"
   id="path56" />
            <path
   d="M695.997,1383.18L689.25,1460.46L594.622,1439.86L597.196,1364.37L695.997,1383.18Z"
   style="fill:rgb(236,72,72);"
   id="path58" />
            <path
   d="M633.467,1404.19L634.451,1393.68L651.694,1397.14L650.47,1407.36L660.286,1409.19L658.332,1422.55L648.912,1420.37L647.98,1428.15L631.58,1424.33L632.31,1416.53L622.989,1414.38L623.439,1402.32L633.467,1404.19Z"
   style="fill:white;"
   id="path60" />
            <path
   d="M448.698,1386.68C451.421,1384.38 454.761,1385.48 456.752,1387.81C458.744,1390.14 459.386,1393.7 456.712,1396.29C450.172,1402.64 441.485,1392.78 448.698,1386.68ZM479.833,878.917C479.833,878.917 472.153,891.079 489.404,899.418C489.404,899.418 690.351,754.75 811.642,832.805C811.642,832.805 825.611,818.294 809.877,809.174C809.877,809.174 699.047,720.871 479.833,878.917ZM386.329,838.551C372.87,841.478 346.917,872.395 381.919,886.436C417.682,900.782 417.153,862.962 409.274,848.144C402.022,834.504 399.788,835.625 386.329,838.551ZM910.625,755.276C902.318,766.848 905.963,807.069 944.409,792.314C983.693,777.237 953.855,750.816 936.13,745.878C919.816,741.333 918.932,743.704 910.625,755.276ZM673.193,689.549C662.409,698.117 650.611,732.23 688.321,731.878C726.853,731.517 710.45,694.843 700.012,687.717C689.283,680.39 683.084,681.691 673.193,689.549Z"
   style="fill:rgb(255,195,67);"
   id="path62" />
            <path
   d="M1010.37,1358.9C1038.06,1307.93 1053.57,1270.46 1072.87,1225.61L1104.64,1292.61L1031.61,1434.14L1010.37,1358.9Z"
   style="fill:rgb(0,136,255);"
   id="path64" />
            <path
   d="M1030.89,1331.98L1053.42,1379.74L1051.22,1383.46L1028.95,1334.93L1030.89,1331.98ZM1035.03,1323.83L1057.51,1373.98L1062.17,1367.45L1038.33,1317.08L1035.03,1323.83ZM1056.64,1323.71C1056.64,1323.71 1049.77,1304.55 1067.82,1302.54L1070.05,1299.47C1070.05,1299.47 1045.01,1297.62 1054.97,1326.59L1056.64,1323.71ZM1044.03,1310.64L1046.79,1312.76L1048.56,1309.97L1046.54,1307.31L1044.03,1310.64ZM1055.31,1295.52L1057.8,1297.87L1060.36,1295.43L1057.69,1292.43L1055.31,1295.52Z"
   style="fill:white;"
   id="path66" />
        </g>
        <g
   id="lighting">
            <path
   d="M554.691,873.058C540.826,917.155 560.423,1050.56 692.772,1056.31C692.772,1056.31 667.44,1101.28 591.684,1075.62C591.684,1075.62 564.796,1068.76 556.884,1080.71C570.857,1103.77 601.316,1141.54 644.235,1176.08C644.235,1176.08 577.785,1165.37 560.679,1125.67C556.318,1153.22 543.863,1202.48 558.954,1275.59C568.617,1322.4 563.158,1345.19 545.553,1337.96C544.684,1334.06 534.046,1286.84 515.862,1231.05L515.676,1229.91C500.072,1133.09 545.421,1024 545.421,1024L546.577,1024.11C507.918,989.207 495.48,936.246 491.319,900.162L491.07,898.352L489.404,899.418L489.004,899.221C472.311,890.909 479.798,878.972 479.833,878.917C466.915,851.338 445.128,805.171 441.848,800.461C438.856,796.165 422.993,823.896 408.903,847.451C409.026,847.679 409.15,847.909 409.274,848.144C409.703,848.95 410.11,849.824 410.489,850.752L404.754,843.826C404.754,843.826 423.059,785.49 445.886,767.299C445.886,767.299 497.249,820.885 520.527,848.804C520.527,848.804 524.671,866.427 537.556,869.85C712.02,767.917 808.946,832.299 808.946,832.299C698.294,791.355 593.153,849.976 554.691,873.058ZM643.18,1012.04C643.18,1012.04 628.276,999.115 636.614,993.911C644.952,988.707 660.768,996.89 666.042,1006.73L643.18,1012.04ZM803.023,697.495C805.866,692.48 805.654,674.642 812.764,671.561C821.73,667.675 877.922,671.717 881.812,677.625C895.671,698.673 905.578,735.717 909.67,756.171L909.765,756.652C898.209,736.907 875.683,695.021 869.473,690.927C858.817,683.903 811.142,691.238 803.023,697.495ZM695.127,731.491C680.148,733.921 668.267,730.355 663.569,720.192C658.871,710.029 668.143,694.964 668.143,694.964L636.922,653.62L660.695,717.472C660.695,717.472 652.443,744.105 676.173,745.607C694.792,746.786 695.374,731.451 695.127,731.491Z"
   style="fill-opacity:0.2;"
   id="path69" />
        </g>
        <g
   id="line">
            <g
   transform="matrix(0.997695,0.0678524,-0.0602749,0.886276,60.0283,58.4532)"
   id="g74">
                <path
   d="M687.601,879.122C696.744,885.221 702.857,890.758 705.569,894.751C706.15,895.608 706.554,896.369 706.756,897.036C706.832,897.29 706.972,897.497 706.808,897.612C706.516,897.818 706.085,897.884 705.539,897.925C704.391,898.011 702.87,897.818 700.959,897.361C693.732,895.665 686.389,894.216 679.024,893.059C674.111,892.288 669.19,891.639 664.293,891.103C651.614,889.716 639.105,889.026 627.317,888.749C585.918,887.775 553.427,892.033 553.427,892.033C552.946,892.088 552.596,892.573 552.645,893.115C552.695,893.656 553.125,894.051 553.606,893.995C553.606,893.995 586.023,890.739 627.214,892.584C638.911,893.108 651.314,894.057 663.892,895.554C668.739,896.131 673.612,896.781 678.482,897.516C685.771,898.617 693.055,899.895 700.22,901.474C703.727,902.231 706.203,902.159 707.69,901.573C708.915,901.089 709.674,900.286 710.065,899.314C710.535,898.149 710.532,896.583 709.679,894.738C707.735,890.535 700.676,883.743 688.964,876.444C688.307,876.02 687.469,876.276 687.093,877.016C686.716,877.755 686.944,878.699 687.601,879.122Z"
   id="path72" />
            </g>
            <g
   transform="matrix(0.913328,0.407224,-0.361747,0.811331,391.141,-113.656)"
   id="g78">
                <path
   d="M716.622,867.725C715.035,872.59 715.863,876.971 717.766,880.022C720.275,884.044 724.705,885.723 728.656,883.751C733.039,881.509 737.661,878.425 742.455,874.725C745.229,872.583 748.064,870.237 750.952,867.747C760.563,859.461 770.862,849.696 781.975,841.03C789.607,835.078 797.588,829.597 805.981,825.456C806.427,825.247 806.639,824.669 806.453,824.166C806.268,823.664 805.754,823.425 805.308,823.634C796.647,827.47 788.334,832.639 780.406,838.387C768.992,846.663 758.34,856.041 748.57,864.188C745.691,866.589 742.897,868.894 740.183,871.033C735.61,874.635 731.277,877.778 727.111,880.035C724.725,881.359 722.018,880.255 720.375,877.859C718.864,875.655 718.196,872.412 719.219,868.717C719.462,867.91 719.078,867.033 718.361,866.759C717.644,866.486 716.865,866.918 716.622,867.725Z"
   id="path76" />
            </g>
            <g
   transform="matrix(0.997695,0.0678524,-0.0602749,0.886276,60.0283,58.4532)"
   id="g82">
                <path
   d="M720.105,891.695C719.841,890.945 719.649,890.248 719.4,889.554C719.224,889.063 719.043,888.598 718.839,888.143C718.568,887.538 718.279,886.958 717.945,886.417C717.591,885.843 717.195,885.314 716.758,884.814C715.213,883.05 713.366,881.592 710.49,880.448C710.062,880.195 709.531,880.38 709.306,880.862C709.081,881.343 709.245,881.94 709.673,882.194C710.851,883.183 711.686,884.176 712.431,885.166C713.017,885.944 713.44,886.74 713.884,887.531C714.195,888.085 714.467,888.655 714.785,889.206C715.113,889.777 715.464,890.335 715.849,890.892C716.433,891.735 717.084,892.501 717.799,893.366C718.208,894.082 719.058,894.289 719.694,893.829C720.33,893.368 720.515,892.412 720.105,891.695Z"
   id="path80" />
            </g>
            <g
   transform="matrix(1.10047,-0.032741,0.0297387,0.999558,-94.1877,15.6368)"
   id="g86">
                <path
   d="M738.764,1023.04C738.764,1023.04 721.372,1018.38 700.418,1015.39C696.209,1014.79 691.857,1014.26 687.473,1013.87C683.125,1013.48 678.745,1013.23 674.447,1013.14C666.702,1012.98 659.212,1013.3 652.641,1014.49C643.74,1016.09 636.52,1019.24 632.406,1024.16C631.983,1024.65 631.997,1025.42 632.436,1025.88C632.876,1026.35 633.576,1026.33 633.999,1025.85C637.119,1022.45 641.999,1020.33 647.916,1018.94C652.621,1017.84 657.98,1017.22 663.696,1016.98C669.434,1016.73 675.523,1016.85 681.654,1017.2C685.661,1017.43 689.685,1017.75 693.641,1018.13C717.25,1020.35 738.38,1024.96 738.38,1024.96C738.86,1025.07 739.335,1024.74 739.441,1024.21C739.547,1023.68 739.244,1023.16 738.764,1023.04Z"
   id="path84" />
            </g>
            <g
   transform="matrix(0.983759,-0.179494,0.179494,0.983759,-150.277,88.1879)"
   id="g90">
                <path
   d="M384.892,867.402C384.871,868.231 384.863,869.06 384.864,869.875C384.875,875.681 385.349,880.799 385.349,880.799C385.396,881.184 385.122,881.535 384.736,881.583C384.351,881.63 384,881.355 383.952,880.97C383.952,880.97 383.167,875.81 382.89,869.923C382.709,866.079 382.751,861.933 383.326,858.692C383.618,857.049 384.06,855.628 384.649,854.559C385.318,853.345 386.202,852.55 387.24,852.215C388.264,851.885 389.493,851.978 390.932,852.758C395.38,855.201 395.845,857.772 394.846,859.976C394.251,861.288 393.008,862.548 391.554,863.653C389.537,865.185 387.13,866.441 386.059,867.295C385.719,867.574 385.255,867.602 384.892,867.402ZM384.961,865.5C385.933,864.743 387.671,863.71 389.321,862.503C390.748,861.458 392.131,860.293 392.679,859.019C393.263,857.661 392.493,856.395 389.753,854.947C389.064,854.578 388.496,854.438 388.008,854.596C387.471,854.769 387.091,855.263 386.747,855.909C386.292,856.765 385.952,857.877 385.686,859.148C385.293,861.027 385.072,863.231 384.961,865.5Z"
   id="path88" />
            </g>
            <g
   transform="matrix(0.934721,0.355382,-0.322888,0.849256,610.374,-156.13)"
   id="g94">
                <path
   d="M384.881,867.487C384.864,868.234 384.857,868.98 384.857,869.715C384.862,875.577 385.348,880.781 385.348,880.781C385.4,881.204 385.13,881.595 384.745,881.652C384.36,881.709 384.005,881.411 383.953,880.988C383.953,880.988 382.952,874.33 382.815,867.505C382.751,864.253 382.892,860.966 383.399,858.323C383.727,856.619 384.223,855.171 384.877,854.114C385.582,852.976 386.487,852.257 387.56,852.006C388.501,851.786 389.609,851.928 390.89,852.622C395.509,855.163 395.872,857.9 394.779,860.18C394.151,861.49 392.885,862.752 391.42,863.851C389.424,865.347 387.075,866.571 386.02,867.409C385.678,867.69 385.23,867.705 384.881,867.487ZM384.955,865.419C386.067,864.542 388.248,863.282 390.115,861.802C391.214,860.93 392.209,859.996 392.669,858.984C392.971,858.322 392.903,857.636 392.314,856.932C391.795,856.312 390.972,855.706 389.795,855.083C389.129,854.726 388.567,854.584 388.078,854.697C387.603,854.807 387.237,855.173 386.918,855.671C386.401,856.48 386.026,857.601 385.734,858.91C385.309,860.812 385.073,863.079 384.955,865.419Z"
   id="path92" />
            </g>
            <g
   transform="matrix(-1.15648,0.551346,0.371955,0.780198,1064.54,-110.132)"
   id="g98">
                <path
   d="M384.639,866.932C384.652,866.98 384.667,867.027 384.684,867.073C384.902,867.656 385.398,867.868 385.791,867.545C386.796,866.747 388.985,865.605 390.914,864.202C392.326,863.176 393.594,861.987 394.294,860.754C394.751,859.949 394.988,859.095 395.008,858.244C395.031,857.277 394.78,856.253 394.068,855.246C393.433,854.348 392.352,853.41 390.676,852.492C389.009,851.603 387.674,851.687 386.618,852.393C385.432,853.187 384.554,854.789 383.989,856.946C383.29,859.613 383.041,863.164 383.057,866.74C383.089,873.848 384.11,881.03 384.11,881.03C384.165,881.472 384.451,881.766 384.749,881.685C385.047,881.605 385.245,881.181 385.191,880.739C385.191,880.739 384.465,873.778 384.639,866.932ZM384.671,865.939C384.738,864.208 384.869,862.507 385.089,860.951C385.468,858.272 386.067,856.025 387.255,855.11C387.961,854.566 388.86,854.587 390.009,855.213C391.172,855.83 391.996,856.433 392.536,857.046C392.896,857.454 393.125,857.775 393.121,858.171C393.118,858.456 393.004,858.721 392.855,858.995C392.297,860.019 391.247,860.96 390.108,861.84C388.184,863.326 386.002,864.585 385.002,865.432C384.855,865.553 384.742,865.732 384.671,865.939Z"
   id="path96" />
            </g>
            <g
   transform="matrix(0.99621,-0.0579695,0.0812034,0.886978,-65.2252,158.817)"
   id="g102">
                <path
   d="M674.106,932.887C676.374,948.237 702.457,951.38 696.965,932.999C690.835,912.483 672.643,922.978 674.106,932.887Z"
   style="fill:none;stroke:black;stroke-width:6.24px;"
   id="path100" />
            </g>
            <g
   transform="matrix(-0.672576,-0.132095,-0.149511,0.646977,1364.86,430.499)"
   id="g106">
                <path
   d="M674.106,932.887C676.374,948.237 702.457,951.38 696.965,932.999C690.835,912.483 672.643,922.978 674.106,932.887Z"
   style="fill:none;stroke:black;stroke-width:8.75px;"
   id="path104" />
            </g>
            <g
   transform="matrix(1.19375,0,0,0.92193,-164.25,112.647)"
   id="g110">
                <path
   d="M733.035,1413.24L733.035,1403.77L741.652,1419.28L745.64,1402.76L752.785,1416.8L755.809,1400.25L763.766,1413.24L765.08,1398.04L773.566,1407.01L772.981,1392.62L782.953,1401.11L782.365,1386.94L794.201,1394.91L788.412,1381.04L801.44,1388.82L794.201,1373.92L810.218,1379.84L801.608,1366.51L814.267,1369.03L806.033,1358.24L819.928,1358.93L810.218,1348.73L826.59,1346.22L816.061,1338.28L830.01,1335.26L819.928,1327.96L835.192,1323.21L826.702,1316.06L840.319,1314.04L828.636,1305.8L843.342,1300.21L831.352,1293.35L845.579,1288.81L836.37,1279.87L849.096,1276.72L838.552,1268.21L850.783,1262.28L841.084,1257.63L855.366,1250.64L842.965,1244.9L856.147,1239.35L843.865,1233.92L856.245,1229.87L845.675,1223.33L856.578,1220.07L845.634,1214.4L858.563,1208.35L845.015,1204.5L859.444,1198.17L844.846,1192.4L859.56,1188.71L846.479,1183.41L858.959,1179.22L847.815,1173.46L857.958,1170.71L846.689,1164.62L853.016,1159.29"
   style="fill:none;stroke:black;stroke-width:3.75px;"
   id="path108" />
            </g>
            <path
   d="M702.007,684.958C701.164,675.348 699.757,662.974 698.256,651.501C697.644,646.826 697.017,642.304 696.411,638.178C694.721,626.662 693.295,618.244 693.295,618.244C693.237,617.81 692.837,617.504 692.403,617.562C691.969,617.62 691.663,618.019 691.721,618.454C691.721,618.454 692.697,628.615 694.011,641.854C694.731,649.114 695.586,657.291 696.331,665.234C697.003,672.392 697.624,679.352 698.018,685.263C698.103,686.364 699.065,687.189 700.165,687.105C701.266,687.02 702.091,686.058 702.007,684.958Z"
   id="path112" />
            <path
   d="M668.07,691.459C661.652,684.259 653.52,673.557 646.029,663.268C643.094,659.235 640.257,655.268 637.66,651.594C631.813,643.32 627.226,636.532 625.76,633.732C625.567,633.338 625.092,633.175 624.698,633.368C624.305,633.561 624.141,634.036 624.334,634.43C625.663,637.339 629.841,644.503 635.378,653.131C637.819,656.936 640.531,661.018 643.365,665.15C650.642,675.758 658.721,686.682 665.058,694.09C665.784,694.921 667.048,695.007 667.88,694.281C668.711,693.555 668.797,692.29 668.07,691.459Z"
   id="path114" />
            <g
   transform="matrix(1,0,0,0.84618,0,137.134)"
   id="g118">
                <path
   d="M493.885,898.734C493.885,898.734 505.363,889.099 524.512,875.7C530.761,871.326 537.818,866.534 545.564,861.547C570.141,845.721 601.644,827.895 636.15,815.202C649.472,810.301 663.238,806.156 677.212,803.172C695.724,799.219 714.6,797.34 733.286,798.308C741.32,798.724 749.315,799.703 757.244,801.22C774.651,804.548 791.732,810.644 807.999,820.578C808.485,820.882 809.089,820.662 809.346,820.087C809.604,819.512 809.417,818.798 808.931,818.494C792.581,808.055 775.373,801.304 757.735,797.737C749.697,796.112 741.569,795.187 733.413,794.789C714.514,793.867 695.438,795.967 676.727,800.021C662.652,803.071 648.783,807.246 635.352,812.163C600.634,824.872 568.824,842.474 544.123,858.427C536.345,863.451 529.27,868.307 523.035,872.793C503.91,886.555 492.596,896.655 492.596,896.655C492.111,897.076 492.005,897.883 492.361,898.456C492.716,899.03 493.399,899.154 493.885,898.734Z"
   id="path116" />
            </g>
            <g
   transform="matrix(1,0,0,1,-2.85037,0.220141)"
   id="g122">
                <path
   d="M996.821,1362.15L1013.37,1441.89L912.418,1437.51L914.843,1358.73L996.821,1362.15Z"
   style="fill:none;stroke:black;stroke-width:2px;"
   id="path120" />
            </g>
            <path
   d="M869.077,1373.98L899.056,1373.98L896.352,1411.97L859.035,1408.52L869.077,1373.98Z"
   style="fill:none;stroke:black;stroke-width:2px;"
   id="path124" />
            <path
   d="M879.045,1373.98L870.813,1409.61"
   style="fill:none;stroke:black;stroke-width:2px;"
   id="path126" />
            <path
   d="M864.622,1389.3L874.929,1389.45"
   style="fill:none;stroke:black;stroke-width:2px;"
   id="path128" />
            <g
   transform="matrix(1,0,0,1,-2.85037,0.220141)"
   id="g132">
                <path
   d="M928.805,1360.47L929.509,1437.15"
   style="fill:none;stroke:black;stroke-width:2px;"
   id="path130" />
            </g>
            <g
   transform="matrix(1,0,0,1,28.549,0.729325)"
   id="g136">
                <path
   d="M925.804,1360.46L931.493,1438.39"
   style="fill:none;stroke:black;stroke-width:2px;"
   id="path134" />
            </g>
            <g
   transform="matrix(1,0,0,0.993582,12.8493,9.46178)"
   id="g140">
                <path
   d="M927.78,1360.46L931.018,1438.9"
   style="fill:none;stroke:black;stroke-width:2.01px;"
   id="path138" />
            </g>
            <g
   transform="matrix(1,0,0,0.993582,44.2486,9.97096)"
   id="g144">
                <path
   d="M923.456,1360.65L932.477,1439.4"
   style="fill:none;stroke:black;stroke-width:2.01px;"
   id="path142" />
            </g>
            <g
   transform="matrix(1,0,0,0.993582,56.9453,12.3041)"
   id="g148">
                <path
   d="M923.947,1358.3L935.367,1437.05"
   style="fill:none;stroke:black;stroke-width:2.01px;"
   id="path146" />
            </g>
            <path
   d="M911.993,1372.77L996.714,1375.59"
   style="fill:none;stroke:black;stroke-width:2px;"
   id="path150" />
            <path
   d="M910.361,1421.29L1006.27,1425.02"
   style="fill:none;stroke:black;stroke-width:2px;"
   id="path152" />
            <path
   d="M926.659,1388.45C928.634,1387.69 999.228,1391.01 999.228,1391.01"
   style="fill:none;stroke:black;stroke-width:2px;"
   id="path154" />
            <path
   d="M926.659,1405.11L1002.75,1407.18"
   style="fill:none;stroke:black;stroke-width:2px;"
   id="path156" />
        </g>
    </g>
</svg>
