<?xml version="1.0" encoding="utf-8"?>
<!-- Generator: Adobe Illustrator 23.0.2, SVG Export Plug-In . SVG Version: 6.00 Build 0)  -->
<svg version="1.1" xmlns="http://www.w3.org/2000/svg" xmlns:xlink="http://www.w3.org/1999/xlink" x="0px" y="0px"
	 viewBox="0 0 3000 2000" style="enable-background:new 0 0 3000 2000;" xml:space="preserve">
<style type="text/css">
	.st0{fill:#F18400;}
	.st1{fill:#FFC928;}
	.st2{fill:#FFA913;}
	.st3{fill:#C45901;}
	.st4{fill:#752F00;}
	.st5{fill:#933B00;}
	.st6{fill:#4101BA;}
	.st7{fill:#9A67FB;}
	.st8{fill:#6734C8;}
	.st9{fill:#4A1E00;}
	.st10{fill:#FFEB99;}
	.st11{opacity:0.64;fill:#FFEB99;}
</style>
<g id="Layer_2">
	<path d="M723,1174c0,0-20,123,0,149s28,99,39,142s-12,14,0,85s126,172,278,216s453-15,503,0s329,4,348,0s198-79,235-96s80,21,80,21
		l34-86l42-70c0,0,0-111-5-134s-36-47-42-78s-93-125-109-194s-83-167-83-167l-99-101c0,0,77-65-85-33s-210,85-285,66s-226-49-272-70
		s-111-94-111-94l-151-7c0,0-109,86-135,101s-14,4-31,37s-112,68-112,68l-48,137L723,1174z"/>
</g>
<g id="Layer_1">
	<g>
		<polygon class="st0" points="1499.9,49 1499.82,1322.82 1104.86,946.23 1150.15,836.06 1153.01,828.31 1167.69,792.41 
			1190.95,736.1 1257.87,587.59 1266.43,568.41 1266.43,568 1286.42,523.53 1299.07,495.38 1299.48,494.56 1389.65,294.64 
			1389.65,293.82 1393.32,285.66 		"/>
		<path class="st1" d="M1499.82,1322.82v66.1c-406.79,0-736.87,125.67-736.87,280.71c0,14.28,2.86,28.16,8.16,42.03L725,1606.8
			l-6.53-14.69l-49.37-110.98l-5.3-12.65l-0.41-0.41l-74.26-168.09l-31.42-70.58v-0.41L521,1146.56l-54.67-109.35l-6.12-11.83v-0.41
			l-16.32-32.23l-15.1-31.01l-84.87-169.33l-0.41-0.81l175.85,58.34l0.82,0.41l22.85,7.75h0.41l36.72,12.24h0.41l36.72,12.65
			c0,0,0-0.41,0.41,0h0.41l13.47,4.48l123.63,41.21l-6.94-127.29l-0.81-13.47v-0.82l-2.04-37.94H745l-2.04-37.95v-0.41
			l-19.99-362.72l182.38,150.96l90.58,74.67v0.41l27.74,22.85l31.01,25.7l0.41,0.41v0.41l12.24,10.2h0.41l123.22,102.41
			l-23.26,56.31l-14.69,35.91l-2.86,7.75l-45.29,110.17L1499.82,1322.82z"/>
		<polygon class="st1" points="1894.44,946.22 1499.9,1322.81 1499.9,49 1808.76,735.68 1808.76,736.09 1808.35,736.09 
			1849.15,836.06 		"/>
		<path class="st2" d="M2656.19,791.58l-0.41,0.41l-177.07,354.56l-196.26,443.1l-0.82,2.45v0.41l-6.52,14.28l-46.52,104.86
			c5.31-13.88,8.16-27.75,8.16-42.03c0-155.05-329.67-280.71-736.86-280.71v-66.1l394.54-376.59l-45.29-110.16l-40.8-99.97h0.41
			L1943.4,624.3l0.41-0.41l149.74-124.04l183.6-152.19l-0.4,6.53v0.41l-32.23,574.07l2.04-0.41v-0.4L2656.19,791.58z"/>
		<path class="st1" d="M2236.76,1669.81c0,14.28-2.85,28.16-8.16,42.03H771.19c-5.3-13.87-8.16-27.75-8.16-42.03
			c0-155.04,330.08-280.71,736.87-280.71C1907.09,1389.1,2236.76,1514.77,2236.76,1669.81z"/>
		<path class="st3" d="M2236.76,1669.81c0,14.28-2.85,28.16-8.16,42.03c-53.04,135.05-359.05,238.68-728.7,238.68
			c-369.25,0-675.67-103.64-728.71-238.68c-5.3-13.87-8.16-27.75-8.16-42.03c0-155.04,330.08-280.71,736.87-280.71
			C1907.09,1389.1,2236.76,1514.77,2236.76,1669.81z"/>
		<path class="st4" d="M2206.16,1669.81c0,148.52-316.21,269.29-706.26,269.29c-389.65,0-705.86-120.77-705.86-269.29
			c0-48.96,34.68-95.06,94.66-134.23c121.99-80.79,350.07-134.65,611.2-134.65c261.12,0,489.61,53.86,611.61,134.65
			C2171.48,1574.75,2206.16,1620.85,2206.16,1669.81z"/>
		<path d="M2111.5,1535.58c-121.99,80.38-350.48,134.23-611.61,134.23c-261.13,0-489.2-53.86-611.2-134.23
			c121.99-80.79,350.07-134.65,611.2-134.65C1761.02,1400.94,1989.51,1454.8,2111.5,1535.58z"/>
		<polygon class="st1" points="2656.19,791.58 2231.05,1216.72 2234.72,1142.06 2235.13,1128.6 2239.61,1031.08 2240.84,1006.6 
			2243.7,949.07 2243.7,948.66 2244.51,928.67 2490.55,846.66 2493.4,845.85 2617.84,804.23 2643.55,795.66 		"/>
		<polygon class="st2" points="1190.95,736.1 1167.69,792.41 1153.01,828.31 1150.15,836.06 1104.86,946.23 940.43,688.37 
			933.91,678.17 933.5,678.17 933.5,677.76 915.14,648.79 914.73,648.79 897.59,621.04 722.96,348.08 905.34,499.04 995.92,573.71 
			995.92,574.12 1023.67,596.97 1054.68,622.67 1055.08,623.08 1055.08,623.49 1067.32,633.69 1067.73,633.69 		"/>
		<polygon class="st2" points="2277.15,347.66 1894.44,946.22 1849.15,836.06 1846.3,828.3 1808.35,736.09 1808.76,736.09 
			1808.76,735.68 1943.4,624.3 1943.81,623.89 2093.55,499.85 		"/>
		<path class="st5" d="M2236.76,1669.81c0,14.28-2.85,28.16-8.16,42.03h-31c2.04-4.9,3.67-9.79,4.9-15.1
			c1.23-3.68,2.04-7.34,2.45-11.43c0.81-4.9,1.22-10.2,1.22-15.5c0-48.96-34.68-95.06-94.66-134.23
			c-121.99-80.79-350.48-134.65-611.61-134.65c-261.13,0-489.2,53.86-611.2,134.65c-59.98,39.17-94.66,85.27-94.66,134.23
			c0,5.3,0.41,10.61,1.23,15.5c0.41,4.08,1.23,7.75,2.45,11.43c1.22,5.3,2.85,10.2,4.89,15.1h-31.42
			c-5.3-13.87-8.16-27.75-8.16-42.03c0-155.04,330.08-280.71,736.87-280.71C1907.09,1389.1,2236.76,1514.77,2236.76,1669.81z"/>
		<path class="st2" d="M1499.9,1322.81v66.1c-406.78,0-736.87,125.67-736.87,280.71c0,14.28,2.86,28.15,8.16,42.03l-52.63-119.55
			C757.72,1440.72,1093.11,1322.81,1499.9,1322.81z"/>
		<path class="st1" d="M2281.64,1592.09v0.41l-53.04,119.14c5.31-13.88,8.16-27.75,8.16-42.03c0-155.05-329.67-280.71-736.86-280.71
			v-66.1C1907.5,1322.81,2242.47,1440.72,2281.64,1592.09z"/>
		<polygon class="st0" points="2277.15,347.66 2047.03,604.71 1858.94,814.43 1846.3,828.3 1808.35,736.09 1808.76,736.09 
			1808.76,735.68 1943.4,624.3 1943.81,623.89 2093.55,499.85 		"/>
		<polygon class="st0" points="2093.96,499.04 2093.55,499.85 2047.03,604.71 1894.44,946.22 1849.15,836.06 1808.35,736.09 
			1808.76,736.09 1808.76,735.68 1944.21,623.07 		"/>
		<polygon class="st3" points="1944.21,623.07 1943.81,623.89 1943.4,624.3 1849.15,836.06 1808.35,736.09 1808.76,736.09 
			1808.76,735.68 		"/>
		<path class="st0" d="M1050.6,1376.68c-16.73,4.49-33.05,8.98-48.96,14.28c-6.53,2.04-12.65,4.08-18.77,6.12
			c-17.95,5.72-34.68,11.83-50.59,18.36c-6.53,2.45-13.06,4.9-19.18,7.75c-13.87,5.71-26.93,11.83-39.17,17.95l-104.86-224
			l-7.34-150.96l-6.53-137.5l-6.94-127.29l-0.81-13.47v-0.82l-2.04-37.94l-2.45-37.95v-0.41l-19.99-361.9h0.41v0.82l2.86,8.16v0.41
			l96.7,303.56v0.4l10.2,31.83l10.61,32.64v0.82l3.67,11.43l201.55,632.42L1050.6,1376.68z"/>
		<path class="st3" d="M874,1441.13c-85.27,42.84-140.76,94.25-155.45,150.97l-197.48-445.55L344,792.4l425.15,424.73L874,1441.13z"
			/>
		<path class="st0" d="M2246.62,928.67l30.53-581.01l-325.93,1029.01c67.32,17.95,126.9,39.58,176.67,64.46l104.86-224l13.87-288.05
			V928.67z"/>
		<path class="st3" d="M2126.12,1441.13c85.27,42.84,140.76,94.25,155.45,150.97l197.48-445.55l176.74-354.56l-424.81,425.14
			L2126.12,1441.13z"/>
		<polygon class="st2" points="723.18,348.1 1048.23,1376.67 1104.94,946.22 		"/>
		<polygon class="st0" points="764.91,1133.29 343.51,791.59 755.2,928.68 		"/>
		<polygon class="st3" points="761.72,1066.18 594.85,917.26 585.87,909.1 585.46,909.1 560.58,886.65 535.69,864.63 535.69,864.22 
			520.18,850.35 543.03,858.1 543.44,858.1 580.16,870.34 580.57,870.34 617.7,882.58 617.7,882.99 618.1,882.99 631.57,887.47 
			755.2,928.68 		"/>
		<polygon class="st0" points="2235.13,1129 2656.19,791.58 2482.19,849.92 2246.36,928.67 2242.69,1007.42 		"/>
		<polygon class="st3" points="2239.83,1066.17 2482.19,849.92 2246.36,928.67 		"/>
		<path class="st0" d="M1499.9,1322.81v33.05c-390.06,0-714.43,108.53-774.81,250.92l-6.53-14.69
			C757.72,1440.72,1093.11,1322.81,1499.9,1322.81z"/>
		<path class="st0" d="M2281.64,1590.09v0.41l-6.52,14.28c-59.98-142.4-384.35-250.92-775.22-250.92v-33.05
			C1907.5,1320.81,2242.47,1438.72,2281.64,1590.09z"/>
		<path class="st0" d="M2281.64,1592.09v0.41l-6.52,14.28c-59.98-142.4-384.35-250.92-775.22-250.92v-33.05
			C1907.5,1322.81,2242.47,1440.72,2281.64,1592.09z"/>
		<polygon class="st1" points="2277.15,347.66 2276.75,354.19 1951.15,1376.67 1894.44,946.22 		"/>
		<path class="st3" d="M1499.9,1322.81c-22.44,0-44.48,0.41-66.51,1.23c-18.77,0.41-37.53,1.23-56.3,2.45
			c-19.99,1.23-39.58,2.85-59.16,4.49c-19.59,1.63-38.76,3.68-57.54,6.12c-18.77,2.45-37.53,4.9-55.48,7.75
			c-17.55,2.45-35.09,5.71-51.82,8.57c-13.88,2.86-27.75,5.71-41.21,8.57c-7.75,1.63-15.51,3.27-22.85,5.3
			c-13.06,2.85-25.7,6.12-38.35,9.39l-1.63-5.31l55.9-425.14L1499.9,1322.81z"/>
		<path class="st0" d="M1894.44,946.22l56.71,430.45c-1.22,0-2.45-0.41-3.67-0.82c-31.01-8.16-63.65-15.51-97.92-22.03
			c-8.97-1.63-18.36-3.27-27.75-4.9c-20.4-3.26-40.8-6.53-62.02-9.39c-19.58-2.45-39.98-4.89-60.38-6.93
			c-41.62-4.08-84.86-6.93-128.93-8.57c-23.26-0.82-46.92-1.23-70.58-1.23L1894.44,946.22z"/>
		<path class="st0" d="M2000.12,1390.94c-8.57-2.45-17.14-5.3-25.71-7.34v-0.41C1982.98,1385.64,1991.54,1388.09,2000.12,1390.94z"
			/>
		<polygon class="st1" points="1499.36,824.26 1499.36,874.59 1367.55,1082.39 1350.44,1059.45 		"/>
		<polygon class="st0" points="1648.86,1059.24 1631.99,1082.52 1524.65,913.22 1522.04,909.44 1522.04,909.15 1500.22,874.53 
			1499.93,874.53 1499.93,874.24 1499.64,873.95 1499.35,874.24 1499.35,874.53 1499.06,874.53 1499.06,824.21 1499.35,824.21 
			1499.64,823.92 1499.93,824.21 1500.22,824.21 1523.2,860.57 1527.27,866.68 		"/>
		<polygon class="st5" points="1499.36,1210.08 1499.36,1255.62 1367.55,1082.39 1402.81,1082.39 1499.01,1209.4 1499.01,1210.42 		
			"/>
		<polygon class="st3" points="1499.36,874.59 1499.36,929.36 1499.01,930.05 1402.47,1082.05 1402.81,1082.39 1367.55,1082.39 		
			"/>
		<polygon class="st0" points="1631.7,1082.52 1504,1250.36 1499.93,1255.88 1499.64,1256.17 1499.35,1255.88 1499.35,1210.21 
			1499.64,1210.5 1499.64,1209.34 1499.93,1209.05 1506.91,1200.03 1595.92,1082.52 		"/>
		<polygon class="st1" points="1595.9,1082.39 1596.24,1082.05 1499.7,930.05 1499.36,929.36 1499.36,874.59 1499.7,873.9 
			1500.04,874.59 1631.84,1082.39 		"/>
		<g>
			<polygon class="st6" points="1499.36,985.85 1439.1,1081.02 1440.13,1082.39 1402.81,1082.39 1402.47,1082.05 1499.01,930.05 
				1499.36,929.36 			"/>
			<polygon class="st7" points="1596.24,1082.05 1595.9,1082.39 1559.27,1082.39 1560.29,1081.02 1500.04,985.85 1499.7,985.51 
				1499.36,985.85 1499.36,929.36 1499.7,930.05 			"/>
			<polygon class="st8" points="1560.29,1081.02 1559.27,1082.39 1500.04,1160.79 1500.04,1161.47 1499.7,1161.13 1499.36,1161.47 
				1499.36,1160.79 1440.13,1082.39 1439.1,1081.02 1499.36,985.85 1499.7,985.51 1500.04,985.85 			"/>
			<polygon class="st7" points="1499.36,1160.79 1499.36,1210.08 1499.01,1210.42 1499.01,1209.4 1402.81,1082.39 1440.13,1082.39 
							"/>
			<polygon class="st6" points="1595.9,1082.39 1499.7,1209.4 1499.7,1210.42 1499.36,1210.08 1499.36,1161.47 1499.7,1161.13 
				1500.04,1161.47 1500.04,1160.79 1559.27,1082.39 			"/>
		</g>
		<path class="st9" d="M1910.35,1619.43v268.88c-32.23,8.98-66.1,16.73-102,23.66v-269.29
			C1844.25,1636.16,1878.53,1628.41,1910.35,1619.43z"/>
		<path class="st4" d="M1960.13,1604.74v268.88c-15.92,5.3-32.64,10.2-49.78,14.69v-268.88
			C1927.49,1614.94,1944.21,1610.05,1960.13,1604.74z"/>
		<path class="st5" d="M2032.75,1577.82v268.07c-22.44,10.2-46.51,19.58-72.62,27.74v-268.88
			C1986.24,1596.58,2010.32,1587.2,2032.75,1577.82z"/>
		<path class="st9" d="M2206.16,1669.62c0,5.3-0.41,10.61-1.22,15.5c-0.41,4.08-1.23,7.75-2.45,11.42c-1.23,5.31-2.86,10.2-4.9,15.1
			c-21.22,51-79.56,97.7-164.84,134.83v-268.66c29.79-13.06,55.9-27.34,78.75-42.43
			C2171.48,1574.55,2206.16,1620.66,2206.16,1669.62z"/>
		<path class="st4" d="M1089.84,1619.43v268.88c32.23,8.98,66.1,16.73,102,23.66v-269.29
			C1155.94,1636.16,1121.66,1628.41,1089.84,1619.43z"/>
		<path class="st9" d="M1040.06,1604.74v268.88c15.92,5.3,32.64,10.2,49.78,14.69v-268.88
			C1072.71,1614.94,1055.98,1610.05,1040.06,1604.74z"/>
		<path class="st5" d="M967.44,1577.82v268.07c22.44,10.2,46.51,19.58,72.62,27.74v-268.88
			C1013.95,1596.58,989.88,1587.2,967.44,1577.82z"/>
		<path class="st9" d="M794.04,1669.62c0,5.3,0.41,10.61,1.22,15.5c0.41,4.08,1.23,7.75,2.45,11.42c1.23,5.31,2.86,10.2,4.9,15.1
			c21.22,51,79.56,97.71,164.84,134.85v-268.68c-29.79-13.06-55.9-27.34-78.75-42.43C828.72,1574.55,794.04,1620.66,794.04,1669.62z
			"/>
		<polygon class="st10" points="1516.58,956.64 1543.04,998.45 1526.11,1026.5 1494.35,1078.37 1468.95,1120.72 1465.24,1126.54 
			1452.54,1147.71 1438.25,1129.72 1452.54,1098.49 1502.29,988.93 		"/>
		<polygon class="st10" points="1543.57,998.98 1561.57,1027.56 1544.63,1055.61 1539.34,1064.08 1510.76,1111.72 1489.06,1147.18 
			1472.65,1174.17 1467.36,1167.29 1481.12,1136.6 1528.75,1030.74 		"/>
		<polygon class="st11" points="1523.2,860.57 1500.22,824.21 1499.93,824.21 1499.93,49 		"/>
		<polygon class="st0" points="1221.26,668.79 1221.26,958.22 1114.68,929.36 1104.91,946.29 1109.23,850.35 1144.54,823.92 
			1083.67,646.97 1191.01,735.98 		"/>
		<g>
			<polygon class="st1" points="722.96,348.08 1104.81,946.29 952.1,604.79 			"/>
			<polygon class="st0" points="722.96,348.08 952.1,604.79 1140.3,814.52 1152.81,828.19 1190.95,736.1 1055.66,624.28 
				1055.36,623.99 905.56,499.78 			"/>
			<polygon class="st0" points="905.27,498.91 905.56,499.78 952.1,604.79 1104.86,946.23 1149.9,836.04 1190.95,736.1 
				1055.07,623.11 			"/>
			<polygon class="st3" points="1054.97,623.07 1055.38,623.89 1055.79,624.3 1150.03,836.06 1190.95,736.1 			"/>
		</g>
	</g>
</g>
</svg>
